<?xml version="1.0" encoding="utf-8"?>
<!-- Generator: Adobe Illustrator 15.1.0, SVG Export Plug-In . SVG Version: 6.00 Build 0)  -->
<!DOCTYPE svg PUBLIC "-//W3C//DTD SVG 1.1//EN" "http://www.w3.org/Graphics/SVG/1.1/DTD/svg11.dtd">
<svg version="1.1" id="Layer_1" xmlns="http://www.w3.org/2000/svg" xmlns:xlink="http://www.w3.org/1999/xlink" x="0px" y="0px"
	 width="100px" height="100px" viewBox="0 0 100 100" enable-background="new 0 0 100 100" xml:space="preserve">
<path fill="#3D4858" d="M87.473,15.23H66.975V6.047c0-2.274-1.844-4.116-4.116-4.116H37.141c-2.273,0-4.116,1.842-4.116,4.116v9.183
	H12.525c-1.635,0-2.96,1.619-2.96,3.616c0,1.998,1.325,3.617,2.96,3.617h4.775c-0.108,0.308-0.169,0.632-0.169,0.97v72.405
	c0,1.9,1.842,3.44,4.116,3.44h58.845c2.273,0,4.116-1.54,4.116-3.44V23.433c0-0.338-0.062-0.663-0.169-0.97h3.433
	c1.636,0,2.962-1.619,2.962-3.617C90.435,16.849,89.108,15.23,87.473,15.23z M37.016,88.196c0,3.172-2.457,5.742-5.487,5.742
	c-3.032,0-5.488-2.57-5.488-5.742V30.263c0-3.171,2.457-5.742,5.488-5.742c3.031,0,5.487,2.571,5.487,5.742V88.196z M56.158,88.196
	c0,3.172-2.457,5.742-5.488,5.742c-3.03,0-5.487-2.57-5.487-5.742V30.263c0-3.171,2.457-5.742,5.487-5.742
	c3.031,0,5.488,2.571,5.488,5.742V88.196z M62.036,15.23H38.444v-4.45c0-2.273,1.843-4.116,4.116-4.116h15.36
	c2.272,0,4.116,1.843,4.116,4.116V15.23z M75.977,88.196c0,3.172-2.456,5.742-5.485,5.742c-3.033,0-5.488-2.57-5.488-5.742V30.263
	c0-3.171,2.455-5.742,5.488-5.742c3.029,0,5.485,2.571,5.485,5.742V88.196z"/>
</svg>
