<?xml version="1.0" encoding="utf-8"?>
<!-- Generator: Adobe Illustrator 15.1.0, SVG Export Plug-In . SVG Version: 6.00 Build 0)  -->
<!DOCTYPE svg PUBLIC "-//W3C//DTD SVG 1.1//EN" "http://www.w3.org/Graphics/SVG/1.1/DTD/svg11.dtd">
<svg version="1.1" id="Layer_1" xmlns="http://www.w3.org/2000/svg" xmlns:xlink="http://www.w3.org/1999/xlink" x="0px" y="0px"
	 width="100px" height="100px" viewBox="0 0 100 100" enable-background="new 0 0 100 100" xml:space="preserve">
<circle fill="#FF4848" cx="50.25" cy="49.917" r="49.916"/>
<path fill="#FFFFFF" d="M66.761,21.867L51,37.627l-15.761-15.76c-3.693-3.694-9.68-3.694-13.373,0
	c-3.692,3.692-3.693,9.679,0,13.372L37.627,51L21.867,66.76c-3.692,3.693-3.692,9.681,0,13.373c3.693,3.693,9.68,3.693,13.373,0
	L51,64.372l15.761,15.761c3.692,3.693,9.681,3.693,13.372,0c3.693-3.692,3.693-9.68,0-13.373L64.373,51l15.76-15.761
	c3.693-3.692,3.693-9.68,0-13.372C76.441,18.174,70.453,18.174,66.761,21.867z"/>
</svg>
