<?xml version="1.0" encoding="utf-8"?>
<!-- Generator: Adobe Illustrator 17.0.0, SVG Export Plug-In . SVG Version: 6.00 Build 0)  -->
<!DOCTYPE svg PUBLIC "-//W3C//DTD SVG 1.1//EN" "http://www.w3.org/Graphics/SVG/1.1/DTD/svg11.dtd">
<svg version="1.1" id="Capa_1" xmlns="http://www.w3.org/2000/svg" xmlns:xlink="http://www.w3.org/1999/xlink" x="0px" y="0px"
	 width="83.468px" height="83.469px" viewBox="0 0 83.468 83.469" enable-background="new 0 0 83.468 83.469" xml:space="preserve">
<g>
	<circle fill="#0071BC" cx="41.734" cy="41.735" r="41.734"/>
	<g>
		<path fill="#FFFFFF" d="M30.411,36.579c0,0,7.739-9.776,15.477-9.097c0,0,2.717,0.237,1.361,4.532l-7.063,26.564
			c0,0-1.111,4.248,2.988,1.357l5.296-4.618l1.766,1.767c0,0-7.741,8.281-12.086,8.825c0,0-5.703,2.173-4.752-5.296
			c0,0,1.98-12.981,6.381-24.578c0,0,1.765-4.889-1.494-2.988c0,0-4.073,2.717-5.839,4.753L30.411,36.579z"/>
		<path fill="#FFFFFF" d="M52.98,16.283c-0.426,2.224-2.447,4.1-4.332,4.1c-1.887,0-3.569-1.315-2.982-4.1
			c0.643-3.051,2.824-4.308,4.867-4.098C52.136,12.348,53.384,14.197,52.98,16.283z"/>
	</g>
</g>
</svg>
