<?xml version="1.0" encoding="utf-8"?>
<!-- Generator: Adobe Illustrator 15.1.0, SVG Export Plug-In . SVG Version: 6.00 Build 0)  -->
<!DOCTYPE svg PUBLIC "-//W3C//DTD SVG 1.1//EN" "http://www.w3.org/Graphics/SVG/1.1/DTD/svg11.dtd">
<svg version="1.1" id="Layer_1" xmlns="http://www.w3.org/2000/svg" xmlns:xlink="http://www.w3.org/1999/xlink" x="0px" y="0px"
	 width="150px" height="100px" viewBox="0 0 150 100" enable-background="new 0 0 150 100" xml:space="preserve">
<g>
	<path fill="#C7E6F1" d="M139.762,52.603c0.979-11.862-6.644-22.448-17.657-25.623c-1.236-12.327-11.111-22.405-23.901-23.459
		c-10.234-0.844-19.574,4.32-24.558,12.543c-4.301-5.759-11.063-9.746-18.934-10.396c-14.283-1.177-26.786,9.079-27.926,22.906
		c-0.068,0.829-0.092,1.651-0.077,2.466c-8.95,3.382-15.63,11.666-16.468,21.836c-1.16,14.078,9.313,26.433,23.391,27.592
		c0.702,0.059,1.398,0.079,2.09,0.081c4.427,7.758,12.475,13.273,22.049,14.062c7.871,0.649,15.245-2.026,20.753-6.847
		c3.892,3.756,9.054,6.243,14.864,6.723c12.502,1.03,23.569-7.598,25.857-19.653C130.122,73.061,138.816,64.081,139.762,52.603z"/>
	<g>
		<g>
			<g>
				<g>
					<g>
						<path fill="#1A90C4" d="M136.25,60.787c0.322-0.723,0.724-1.307,0.675-1.003c0.441-1.574,0.607-1.55,0.341-1.859
							c0.152-1.027,0.654-2.034,0.492-0.857c0.204-0.981,0.344-1.972,0.42-2.963c-0.106,0.584-0.237,1.162-0.391,1.734
							c-0.151-0.521,0.604-2.776,0.263-3.377c-0.08,1.057-0.226,2.108-0.449,3.145l-0.063-0.177
							c-0.033,0.731-0.467,2.075-0.677,2.517c-0.024-0.09-0.109-0.065,0.048-0.598c-0.602,1.798-0.641,2.063-0.559,2.289
							c0.054,0.216,0.21,0.388-0.486,1.853C135.949,61.307,136.072,61.089,136.25,60.787z"/>
						<path fill="#1A90C4" d="M133.973,63.243c-0.14,0.437-0.301,0.868-0.471,1.302c-0.484,0.575-0.994,1.126-1.528,1.65
							c0.089,0.11-1.003,1.359-0.132,0.646c0.141-0.171,0.41-0.513,0.654-0.765c0.021,0.189-0.467,0.776-0.909,1.25
							c-0.437,0.478-0.816,0.854-0.467,0.735c1.283-1.305,1.499-1.496,2.06-2.489c1.086-1.257,1.79-2.248,2.284-2.864
							c0.216-0.449,0.103-0.594,0.368-1.159l-0.193,0.377l-0.405-0.15c-0.171,0.491-0.462,0.887-0.765,1.367
							c0.345-0.825,0.631-1.663,0.87-2.504c-0.364,0.282-0.787,0.996-1.255,1.711c-0.458,0.72-0.967,1.437-1.339,1.779
							C133.776,63.345,132.305,65.06,133.973,63.243z"/>
						<path fill="#1A90C4" d="M135.832,61.55l0.031-0.06L135.832,61.55z"/>
						<path fill="#1A90C4" d="M30.077,15.954c0.353-0.522,0.389-0.725,0.4-0.832c-1.418,1.905-2.575,4.007-3.425,6.227
							c0.173-0.179,1.107-1.988,0.632-0.715c0.33-0.516,1.055-2.198,1.073-2.5l-0.094,0.53c0.584-1.544,1.578-2.222,1.12-1.27
							l0.069-0.116c0.543-1.4,1.22-2.775,2.03-4.095C30.753,14.427,31.241,14.333,30.077,15.954z"/>
						<path fill="#1A90C4" d="M139.344,42.619c-0.327-0.843-0.414-0.925-0.414-0.817C139.068,42.094,139.207,42.371,139.344,42.619z
							"/>
						<path fill="#1A90C4" d="M32.468,12.267c0.272-0.406,0.555-0.808,0.852-1.201C32.939,11.514,32.648,11.942,32.468,12.267z"/>
						<path fill="#1A90C4" d="M30.695,22.099c0.012,0.007,0.019,0.024,0.048,0.002l0.094-0.559l-0.006,0.014L30.695,22.099z"/>
						<path fill="#1A90C4" d="M62.956,4.792l0.461,0.157C63.251,4.887,63.098,4.837,62.956,4.792z"/>
						<path fill="#1A90C4" d="M22.01,38.088c0.609-0.602,1.257-1.173,1.938-1.709c-0.228,0.282,0.81-0.401,0.422,0.003
							c0.15-0.128,0.928-0.615,0.68-0.547l-0.453,0.267c0.501-0.489,0.564-0.662,0.735-0.873c0.042-0.053,0.091-0.11,0.156-0.175
							c0.086-0.073,0.091-0.117,0.329-0.254c0.409-0.246,0.921-0.572,1.96-1.049c-2.847,0.959-2.773,1.263-3.46,1.81l-0.563,0.401
							c-0.529,0.532-1.035,1.075-1.498,1.648C22.172,37.769,22.087,37.925,22.01,38.088z"/>
						<path fill="#1A90C4" d="M113.639,11.883l-0.041-0.003C113.624,11.893,113.636,11.892,113.639,11.883z"/>
						<path fill="#1A90C4" d="M113.43,11.874l0.168,0.007C113.448,11.813,112.989,11.442,113.43,11.874z"/>
						<path fill="#1A90C4" d="M32.269,12.805c-0.016-0.076,0.047-0.268,0.199-0.538c-0.202,0.303-0.399,0.607-0.585,0.917
							C31.985,13.074,32.13,12.935,32.269,12.805z"/>
						<path fill="#1A90C4" d="M31.3,15.119c-0.519,0.696-1.002,1.417-1.447,2.161l-0.336,0.912
							C29.954,17.301,30.531,16.297,31.3,15.119z"/>
						<path fill="#1A90C4" d="M58.78,3.345c5.628,1.39-1.466,0.018,1.08,0.781c1.542,0.364,2.135,0.379,3.096,0.666
							c-2.18-0.699-2.006-0.74-1.808-0.877c0.189-0.097,0.403-0.294-1.895-0.807c0.731-0.228,3.419,0.5,4.858,1.25
							c1.542,1.015-1.562-0.395-2.067-0.156c1.78,0.575,1.484,0.43,2.302,0.553c2.686,1.204,5.644,2.595,6.734,4.103
							c0.86,0.643,1.265,0.944,1.604,1.15c0.167,0.055,0.208-0.024,0.325-0.033c0.05-0.078,0.063-0.146,0.066-0.199
							c0.001-0.026-0.002-0.05-0.006-0.071L73.066,9.69c0.012,0.009-0.031-0.032,0.027,0.019l-0.06-0.059l-0.249-0.245
							c-0.68-0.666-1.512-1.363-1.754-1.721c0.116,0.127,0.341,0.378,0.233,0.36c-0.486-0.408-0.98-0.809-1.493-1.185
							c1.401,1.146-0.401,0.129-1.229-0.336c-0.585-0.373-1.807-1.021-1.593-1.016c0.323,0.142,0.64,0.295,0.958,0.45
							c-1.123-0.799-2.757-1.185-4.002-1.894c-0.039-0.104,0.477,0.067,0.575,0.052c-1.583-0.385-3.035-0.94-5.376-1.293
							c0.47-0.016,0.944-0.027,1.419-0.021c-0.972-0.057-2.486-0.337-4.147-0.548c-1.658-0.224-3.461-0.373-4.957-0.422
							c0.335,0.048,0.927,0.083,0.572,0.158c-1.732,0.118-3.067,0.049-2.279-0.231c-0.842,0.225-2.471,0.358-4.158,0.706
							c-1.687,0.334-3.421,0.882-4.43,1.511c-3.099,1.911-5.745,4.348-7.803,7.091c0.246-0.293,0.525-0.589,0.836-0.875
							c0.916-0.346,1.254-0.674,0.227,0.565c1.099-1.109,0.447-0.981,2.378-2.355c-0.669,0.673-0.664,1.046,1.228-0.119
							c2.293-1.583,4.351-2.751,6.495-3.724c2.148-0.949,4.405-1.699,7.15-2.014c0.105,0.118,1.231,0.126,2.585,0.224
							c1.353,0.097,2.934,0.307,3.95,0.542c-0.829,0.102-2.349-0.064-3.932-0.102c0.991,0.068,2.688,0.269,3.928,0.536L58.78,3.345z
							"/>
						<path fill="#1A90C4" d="M45.49,4.363c0.143-0.013,0.29-0.04,0.438-0.061C45.847,4.298,45.714,4.316,45.49,4.363z"/>
						<path fill="#1A90C4" d="M53.758,3.178c-0.02,0.008-0.013,0.016-0.021,0.025l0.5,0.005L53.758,3.178z"/>
						<path fill="#1A90C4" d="M33.572,12.264c-0.186,0.274-0.339,0.463-0.515,0.742l0.441-0.537
							C33.64,12.286,33.696,12.186,33.572,12.264z"/>
						<path fill="#1A90C4" d="M32.489,12.748l0.049-0.198l-0.269,0.255C32.282,12.87,32.345,12.87,32.489,12.748z"/>
						<path fill="#1A90C4" d="M74.167,14.089l0.221-0.414C74.249,13.887,74.193,14.005,74.167,14.089z"/>
						<path fill="#1A90C4" d="M64.74,5.767c-0.915-0.399-1.01-0.327-1.192-0.309c-0.186,0.025-0.453-0.02-1.768-0.477l0.763,0.295
							c-0.962-0.279-2.277-0.67-3.661-0.979c-1.383-0.313-2.833-0.53-4.01-0.621c0.281-0.133-1.42-0.27-1.136-0.473
							c-1.636-0.025-3.258,0.127-4.063,0.446c-1.013,0.015-2.487,0.448-3.745,0.652c0.552,0.025-1.648,0.835,1.315,0.022
							c-0.241,0.067-0.083,0.067-0.318,0.134c1.967-0.176,2.711-0.567,4.42-0.666c1.019,0.087-1.645,0.305-0.686,0.308
							c1.05-0.137,2.712-0.107,4.082,0.002c1.371,0.098,2.458,0.243,2.432-0.023c1.538,0.231,1.719,0.422,2.147,0.611
							c1.256,0.015,3.448,0.759,5.212,1.645c1.78,0.859,3.154,1.795,3.335,1.491c-0.777-0.468-2.066-1.209-3.334-1.629L64.74,5.767z
							"/>
						<path fill="#1A90C4" d="M35.952,10.168L36.25,9.95L35.952,10.168z"/>
						<path fill="#1A90C4" d="M23.809,29.006c-0.148-0.168-0.295-0.31-0.441-0.424c-0.01-0.125-0.018-0.18-0.013-0.325
							c0.04-0.529,0.091-1.019,0.151-1.481c0.122-0.924,0.286-1.733,0.474-2.514c0.388-1.561,0.853-3.026,1.715-5.011
							c0.192-0.275,0.012,0.217-0.071,0.47c0.561-1.407,1.454-3.083,2.444-4.568c0.983-1.491,2.045-2.796,2.725-3.668
							c0.639-0.736,2.614-2.313,1.996-1.573c0.318-0.338,0.696-0.717,1.123-1.042c0.205,0.032-0.891,0.801-0.819,0.928
							c0.321-0.272,0.469-0.349,0.511-0.452c-0.227,0.282,0.003,0.268-0.026,0.449c-0.021,0.189-0.328,0.535-1.483,1.674
							c-0.575,0.32-0.196-0.1,0.25-0.55c0.441-0.453,0.953-0.931,0.533-0.837c-0.809,0.741-0.593,0.782-0.628,0.879
							c-0.988,0.968-1.021,0.891-1.046,0.766c-0.279,0.464-1.561,1.686-1.835,2.407c-1.549,2.224-0.184-0.315-1.194,1.152
							c-0.074,0.364-0.138,0.729-0.194,1.091c-0.533,0.818-1.025,1.667-1.468,2.541c-0.81,1.973-0.524,1.915-0.332,1.91
							c0.231,0.006,0.337,0.066-0.25,2.342c-0.02-0.66-1,1.044-1.424,3.262c0.162-1.321,0.489-3.831,1.255-5.421
							c-0.575,1.101-0.312,0.297,0.043-0.639c0.355-0.934,0.844-1.979,0.395-1.479c-0.375,1.188-1.079,3.096-1.569,4.619
							l0.102-0.514c-0.497,1.637-0.346,2.973-0.737,5.253l-0.015,0.177c-0.004,0.031-0.01,0.056-0.017,0.076
							c-0.014,0.04-0.031,0.058-0.051,0.062c-0.041,0.009-0.094-0.036-0.141-0.072C23.816,28.756,23.901,29.065,23.809,29.006z
							 M23.746,28.303c0.06-0.516,0.129-1.03,0.215-1.542C23.84,27.117,23.773,27.697,23.746,28.303z"/>
						<path fill="#1A90C4" d="M118.454,73.004l0.633-0.08C118.941,72.931,118.705,72.964,118.454,73.004z"/>
						<path fill="#1A90C4" d="M18.77,71.207l0.507,0.535L18.77,71.207z"/>
						<path fill="#1A90C4" d="M33.468,76.938h1.642l-1.146-0.021C33.758,76.916,33.63,76.925,33.468,76.938z"/>
						<polygon fill="#1A90C4" points="114.316,82.114 114.294,82.145 114.221,82.3 						"/>
						<path fill="#1A90C4" d="M63.737,91.937c0.167,0.016,0.352,0.015,0.602,0C64.303,91.898,64.079,91.91,63.737,91.937z"/>
						<polygon fill="#1A90C4" points="33.281,76.937 33.341,76.951 33.468,76.938 						"/>
						<path fill="#1A90C4" d="M15.728,64.705l-0.23-0.386C15.591,64.509,15.667,64.617,15.728,64.705z"/>
						<path fill="#1A90C4" d="M15.124,66.154l-0.252-0.385L15.124,66.154z"/>
						<path fill="#1A90C4" d="M16.919,42.415c0.167-0.272,0.323-0.554,0.502-0.819C17.143,41.977,17.015,42.23,16.919,42.415z"/>
						<path fill="#1A90C4" d="M14.259,63.68c-0.039-0.045-0.077-0.09-0.11-0.12C14.211,63.681,14.259,63.733,14.259,63.68z"/>
						<polygon fill="#1A90C4" points="126.006,71.935 125.949,71.964 125.949,72.02 						"/>
						<path fill="#1A90C4" d="M127.89,70.146l0.729-0.532C128.343,69.804,128.08,69.993,127.89,70.146z"/>
						<path fill="#1A90C4" d="M78.132,85.697c0.121-0.066,0.304-0.211,0.459-0.279c0.246,0.29,0.428,0.523,0.227,0.393
							c0.485,0.354,0.563,0.194-0.224-0.525C78.465,85.37,78.31,85.533,78.132,85.697z"/>
						<path fill="#1A90C4" d="M122.03,76.261c0.097-0.086,0.188-0.152,0.434-0.269c-0.228,0.099-0.323,0.151-0.393,0.194
							C122.002,76.23,121.978,76.258,122.03,76.261z"/>
						<path fill="#1A90C4" d="M122.464,75.992c0.196-0.086,0.404-0.182,0.576-0.27L122.464,75.992z"/>
						<path fill="#1A90C4" d="M72.856,93.504c-0.083,0.007-0.198,0.034-0.344,0.095C72.578,93.631,72.699,93.588,72.856,93.504z"/>
						<path fill="#1A90C4" d="M129.245,69.242c0.117-0.145,2.898-2.844,0.389-0.771c-0.087-0.309,1.489-1.445,2.013-2.142
							c-0.482,0.394,0.07-0.362-0.144-0.305c-0.261,0.329-0.55,0.751-1.079,1.204c-0.333,0.106,0.384-0.661,0.981-1.22
							c-0.81,0.607,0.692-1.089-0.372-0.155c-2.035,2.216-3.77,3.473-5.472,4.886c1.544-0.861,3.101-2.056,4.274-2.894l-0.299,0.597
							c-1.442,0.821-2.184,1.522-3.623,2.273c1.093-0.523,2.146-1.137,3.148-1.832c1.484-0.888,0.644-0.107-0.444,0.729
							C128.894,69.423,129.149,69.256,129.245,69.242z"/>
						<path fill="#1A90C4" d="M128.386,72.686l0.063-0.029c0.046-0.039,0.105-0.083,0.133-0.112L128.386,72.686z"/>
						<path fill="#1A90C4" d="M12.224,39.534l0.123-0.365C12.208,39.45,12.186,39.549,12.224,39.534z"/>
						<path fill="#1A90C4" d="M125.664,72.641l0.004-0.002C125.646,72.652,125.64,72.655,125.664,72.641z"/>
						<path fill="#1A90C4" d="M8.489,47.908c-0.004-0.013-0.009-0.027-0.011-0.052C8.478,47.889,8.486,47.891,8.489,47.908z"/>
						<path fill="#1A90C4" d="M13.763,51.283c0.015-0.012,0.027-0.015,0.045-0.044C13.819,51.083,13.794,51.156,13.763,51.283z"/>
						<path fill="#1A90C4" d="M8.511,47.922c-0.008-0.002-0.017,0.002-0.022-0.014C8.496,47.918,8.5,47.936,8.511,47.922z"/>
						<path fill="#1A90C4" d="M29.463,81.366c0,0.001-0.121-0.077-0.319-0.173C29.06,81.197,29.13,81.247,29.463,81.366z"/>
						<path fill="#1A90C4" d="M21.823,77.794l-0.114-0.104L21.823,77.794z"/>
						<path fill="#1A90C4" d="M75.509,86.285c-0.536,0.43-0.973,0.745-1.273,0.972C74.603,87.01,75.059,86.679,75.509,86.285z"/>
						<path fill="#1A90C4" d="M8.478,47.856c-0.003-0.097-0.006-0.234,0.021-0.453C8.468,47.646,8.474,47.776,8.478,47.856z"/>
						<polygon fill="#1A90C4" points="39.301,85.735 39.111,85.573 39.201,85.69 						"/>
						<path fill="#1A90C4" d="M42.245,88.777c-0.131-0.066-0.204-0.084-0.285-0.113c1.214,0.914,3.501,2.526,3.948,2.411
							c-0.473-0.217-2.56-1.852-2.078-1.743c-0.896-0.54-1.944-1.685-2.379-2.027c1.18,1.236-0.037,0.329-0.939-0.413
							c-0.693-0.795,0.298-0.024-0.3-0.7c-0.576-0.564-1.117-1.164-1.641-1.776c0.437,0.55,0.894,1.085,1.374,1.601l-0.644-0.28
							l0.167,0.144c1.289,1.258,1.306,1.35,1.297,1.487C40.772,87.483,40.753,87.658,42.245,88.777z"/>
						<path fill="#1A90C4" d="M41.96,88.664c-0.191-0.129-0.353-0.249-0.492-0.327C41.733,88.561,41.854,88.625,41.96,88.664z"/>
						<path fill="#1A90C4" d="M55.277,95.223c0.188,0.021,0.394,0.044,0.653,0.06L55.277,95.223z"/>
						<path fill="#1A90C4" d="M28.623,19.795c-0.122,0.007-1.121,1.923-0.882,1.973c0.246-0.585,0.509-1.168,0.805-1.737
							L28.623,19.795z"/>
						<path fill="#1A90C4" d="M91.896,93.989l-0.681-0.115l-0.137,0.009C91.211,93.942,91.666,93.976,91.896,93.989z"/>
						<path fill="#1A90C4" d="M44.412,89.618c-0.333-0.185-0.487-0.264-0.582-0.286C44.041,89.461,44.241,89.574,44.412,89.618z"/>
						<path fill="#1A90C4" d="M91.954,94.511c0.286,0.104,0.714,0.245,0.77,0.334c0.613,0.063,1.055-0.011,1.679-0.026
							C93.697,94.821,92.881,94.736,91.954,94.511z"/>
						<path fill="#1A90C4" d="M94.454,94.816l-0.052,0.002L94.454,94.816z"/>
						<path fill="#1A90C4" d="M29.281,18.707l0.235-0.515l-0.093,0.284c0.255-0.418,0.525-0.823,0.802-1.221
							c0.083-0.155,0.179-0.321,0.3-0.521c-0.045,0.082-0.066,0.156-0.071,0.206l0.28-0.373c0.232-0.543,0.758-1.421,1.33-2.222
							c0.566-0.806,1.177-1.532,1.434-1.876c0.728-0.86,1.75-1.798,2.453-2.301c-0.645,0.479-1.419,1.209-1.098,1.095
							c1.345-0.932,2.121-1.15,4.339-2.826c-0.472,0.269-0.936,0.551-1.389,0.849c0.937-0.796,1.937-1.538,2.994-2.206
							c1.252-0.382-1.575,1.002-1.898,1.454c2.384-1.66,4.873-1.832,5.998-2.586c0.253,0.199,0.644,0.451,2.424,0.057
							c-1.355-0.013,1.051-0.39-0.078-0.471c0.607-0.276,2.063-0.242,2.148-0.43L49.23,5.227c3.178,0.06,4.193-0.39,5.601-0.515
							c1.929,0.122,3.32,0.417,4.593,0.761c1.273,0.354,2.437,0.758,3.897,1.349c0.054,0.204,0.655,0.936,1.75,1.488
							c0.305,0.039,1.091,0.364,1.825,0.725c0.736,0.354,1.432,0.724,1.631,0.697c-1.804-1.375-1.669-0.825-2.854-1.44
							c-0.847-0.789,0.062-0.319-1.242-1.165c0.541,0.316,1.816,0.918,3.026,1.678c1.215,0.748,2.351,1.65,2.779,2.2l-0.396-0.276
							c0.395,0.375,0.672,0.715,0.912,1.044c0.131,0.173,0.225,0.316,0.305,0.452l0.291,0.443c0.406,0.604,1.09,1.395,2.047,2.311
							l0.201,0.203c0.199-0.339,0.376-0.75,0.572-1.092c-0.031,0.093-0.027,0.143-0.042,0.208c0.653-0.946,0.978-1.183,1.298-1.513
							c0.345-0.325,0.621-0.682,1.622-1.895c-0.15,0.184-0.024,0.098-0.177,0.284c1.308-1.146,2.454-2.501,3.501-3.34
							c0.794-0.28-0.025,0.301-0.315,0.733c1.241-0.882,2.534-1.792,3.763-2.571c1.228-0.778,2.383-1.431,3.248-1.891
							c0.648-0.176,1.299-0.334,1.954-0.462c-1.126,0.398-2.386,1.135-1.997,1.146c1.003-0.395,0.766-0.457,2.257-0.825
							c-0.217,0.209-0.796,0.518-1.407,0.921c1.519-0.353,1.659-0.485,1.687-0.615c0.028-0.114-0.048-0.199,1.07-0.208
							c0.96-0.196,1.49-0.489,1.575-0.687c0.606-0.008,1.21,0.002,1.811,0.04c0.174-0.273,2.406-0.388,3.866-0.294
							c0.188-0.096-1.167-0.322-1.729-0.223c0.109-0.194,1.691-0.239,2.701-0.121c0.162,0.258,1.801,0.424,3.22,0.757
							c1.423,0.315,2.609,0.742,1.958,0.826c2.164,0.583,4.664,1.683,6.788,3.043c2.139,1.344,3.886,2.917,4.974,3.952
							c0.588,0.807,1.812,2.389,0.887,1.593c1.127,1.408,1.969,2.495,2.74,3.641c0.762,1.148,1.452,2.368,2,4.104
							c0.058,0.299-0.578-1.536-0.698-1.348c0.539,1.042,0.845,2.077,1.108,3.269c0.131,0.597,0.254,1.235,0.372,1.945l0.32,2.08
							l0.089,0.023l-0.088-0.024c-0.075-0.441-0.172-0.537-0.229-0.582c0.035-0.051,0.105,0.237,0.192,0.611
							c0.473,0.093,1.051,0.237,1.469,0.345c0.411,0.192-0.606-0.155-0.404-0.015l1.082,0.441c0.394,0.167,0.778,0.341,1.155,0.518
							c0.754,0.357,1.477,0.732,2.174,1.127c1.396,0.79,2.687,1.663,3.901,2.641c2.415,1.958,4.565,4.359,6.161,7.554
							c-0.927-1.822-1.667-2.262-1.775-2.21c0.352,0.549,0.683,1.112,0.99,1.687c0.509,0.586,1.152,1.921,1.691,3.046
							c-0.005,0.167,0.136,0.751-0.143,0.202c0.504,1.876,0.983,3.299,1.396,4.894c0.396,1.586,0.723,3.367,0.452,5.777
							c-0.059-1.962-0.337-3.895-0.832-5.744c-0.005,0.477-0.026,0.951-0.06,1.422c-0.171-0.817-0.386-1.619-0.639-2.404
							c0.106,1.46,0.601,2.693,0.371,2.892c-0.088-0.304-0.143-1.046-0.278-1.055c0.045,1.398,0.218,1.495,0.293,2.551
							c-0.254-1.389-0.55-3.405-1.115-5.37c-0.546-1.968-1.356-3.865-2.071-5.106c-0.24-0.381,0.284,0.288,0.361,0.342
							c-0.537-1.041-0.743-1.746-1.637-2.94c-0.691-0.637,0.278,0.658,0.615,1.304c-0.211,0.007-0.378-0.316-0.843-0.969
							c0.051-0.137-0.538-1.078-1.295-2.032c-0.747-0.962-1.663-1.923-1.948-2.387c-1.647-1.427-1.65-1.135-1.579-0.93
							c0.047,0.236,0.169,0.392-1.483-0.865c-0.29-0.309-0.586-0.618-0.896-0.915c-1.75-0.854-3.405-1.562-6.719-2.467
							c-0.121-0.931-0.225-1.891-0.368-2.786c0.047,0.262,0.098,0.522,0.133,0.788c0.184,0.472,0.145-0.422,0.133-0.796
							c-0.045-0.372-0.092-0.607-0.137-0.854c-0.055-0.248-0.106-0.492-0.174-0.727c-0.123-0.474-0.276-0.918-0.419-1.338
							c-0.293-0.838-0.581-1.562-0.69-2.2c-0.584-1.049-1.394-2.414-2.352-3.711c-0.95-1.303-2.046-2.533-3.009-3.449
							c-0.114-0.386,0.552,0.183,1.302,1.003c0.752,0.817,1.546,1.903,1.938,2.323c-0.44-0.696-0.914-1.37-1.419-2.02
							c0.93,1.209,1.356,1.647,2.022,2.327c-1.107-1.9-1.814-2.297-3.229-3.774c0.179,0.055,0.052-0.202-0.612-0.886l-0.362-0.02
							c0.002-0.026-0.06-0.112-0.259-0.328c-0.913-0.806-1.878-1.546-2.892-2.206c0.562,0.538,0.463,0.726,1.179,1.309
							c-0.168-0.318,0.473,0.147,1.151,0.785c-0.702-0.438,0.571,0.718,0.455,0.803c-1.294-1.324-3.142-2.667-4.209-3.237
							l-0.214-0.399c-1.483-0.982-3.251-1.633-4.353-2.095l0.396,0.021c-1.978-0.833-4.061-1.166-5.921-1.6
							c-1.936,0.016-4.319,0.264-5.79,0.738c-0.386,0.186-1.741,0.269-3.234,0.589c-1.496,0.295-3.11,0.865-3.972,1.495
							c-0.147,0.023,1.222-0.79,1.876-1.126c-1.35,0.444-2.202,1.253-2.725,1.183c2.907-1.252-0.264-0.159,1-0.841
							c-1.373,0.607-2.72,1.454-3.27,1.947c2.057-1.247-0.52,0.776,1.502-0.557c-1.522,1.115-3.503,2.659-5.133,4.148
							c-0.078-0.111-0.318,0.032-0.932,0.597l-0.152,0.313c-0.057,0.111-0.079,0.18-0.2,0.369c-0.297,0.323-0.296,0.318-0.21,0.163
							l0.218-0.31l0.176-0.262c0.102-0.158,0.181-0.293,0.144-0.294c-0.019,0-0.066,0.033-0.155,0.114l-0.165,0.159l-0.114,0.116
							L77.64,13.69c-0.997,1.347-2.563,3.8-3.842,5.758c-1.436-1.902-2.817-3.54-3.478-3.838c-0.882-1.106,0.067-0.248,0.803,0.566
							c0.756,0.823,1.337,1.41,0.118-0.307c0.859,0.837,1.805,2.062,2.53,3.009c0.508-0.791,0.932-1.522,1.072-1.973
							c-1.104,1.856-0.508,0.375-1.107,1.233l-0.071-0.095l-1.438-1.521l0.328,0.425c-0.636-0.666-1.386-1.548-2.238-2.401
							c-0.984-0.969-1.538-1.417-2.272-2.007c-1.429-1.138-3.064-2.169-4.62-2.89c-1.375-0.492-2.581-0.744-3.841-0.973
							C58.319,8.456,57,8.25,55.317,8.038c0.508-0.027-0.186-0.161-0.746-0.27c-0.559-0.101-0.987-0.215,0.112-0.296
							c-1.591-0.308-3.186-0.047-3.203,0.084c1.397,0.016,0.494,0.021,1.666,0.098c-0.797,0.118-2.6,0.188-3.355,0.186
							c0.345-0.023,0.211-0.041,0.284-0.098c-1.665,0.087-0.775,0.245-1.939,0.498c-0.42-0.18-2.589,0.494-3.646,0.774
							c-0.465,0.274-0.917,0.563-1.357,0.863c0.71-0.538-1.411,0.524-1.706,0.497c-0.939,0.663-1.626,1.338-3.033,2.286
							c0.496-0.517-1.338,0.808-1.481,0.694c-1.195,0.882-1.959,1.875-2.625,2.869c-0.67,1-1.252,2-2.089,3.101
							c-0.001-0.098,0.168-0.654-0.294,0.019c-0.278,0.581-0.815,1.563-1.067,2.201l0.003-0.022l-0.01,0.036
							c-0.121,0.313-0.179,0.515-0.136,0.543c-0.223,1.162-0.287,1.782-0.616,3.996c0.253-0.116,0.619-1.941,0.846-2.729
							c0.008-0.246,0.008-0.498,0.024-0.746c0.577-0.49,0.752-1.88,1.124-2.282c-0.13,0.695-0.63,1.886-1.032,3.233
							c-0.41,1.343-0.712,2.841-0.733,3.983c0.266-0.659,0.555-1.706,0.953-2.871c0.396-1.165,0.909-2.445,1.485-3.598
							c-0.218,0.313-0.425,0.634-0.627,0.961c0.186-0.412,0.38-0.821,0.592-1.221c-0.282,0.346-0.553,0.704-0.814,1.072
							c0.575-1.166,1.084-2.173,1.75-3.148c-0.751,1.151-1.286,1.476-0.849,0.816c1.025-1.187,0.75-1.452,1.491-2.403
							c-0.433,0.508-0.938,1.222-0.723,0.682c0.819-0.876,1.333-1.421,1.843-1.938c0.513-0.511,1.029-0.991,1.936-1.579
							c-0.234-0.065,0.264-0.519,0.855-0.977c0.591-0.46,1.274-0.915,1.322-1.139c-0.288,0.175-0.572,0.356-0.851,0.546
							c0.531-0.485,1.087-0.947,1.667-1.385c1.883-0.69-1.347,1.137,1.377-0.11c1.227-0.605,1.813-0.93,2.333-1.249
							c0.522-0.308,0.982-0.605,2.035-0.919c-0.637,0.418-2.204,1.131-3.764,1.888c0.333-0.116,0.667-0.227,1.003-0.329
							c-0.467,0.318-2.602,1.361-3.58,2.044c1.507-1.293-0.836,0.396-1.65,0.821c0.015,0.283,0.984-0.517-0.067,0.545
							c1.086-0.854,1.235-1.011,2.782-1.861c-1.661,0.941-2.199,1.671-2.683,2.304c-0.472,0.657-0.898,1.234-2.055,2.35
							c0.934-1.165-0.607,0.147-0.8,0.234c-0.452,0.553-1.254,1.75-1.512,2.282l0.572-0.255c-0.46,0.811-0.89,1.278-1.312,1.812
							c-0.414,0.533-0.817,1.142-1.054,2.215c0.063,0.325,0.806-1.72,0.696-1.346c-0.53,1.378-0.916,2.291-1.319,3.182
							c-0.395,0.892-0.799,1.765-1.09,3.09c0.041,0.081,0.115,0.12,0.188,0.256c0.038,0.068,0.076,0.161,0.11,0.295
							c0.017,0.067,0.033,0.144,0.048,0.233c0.014,0.125,0.024,0.409,0.034,0.658c-0.084-0.343-0.171-0.129-0.241-0.13
							c-0.035,0-0.065-0.052-0.089-0.244l-0.031-0.339l-0.023-0.324l-0.05,0.304l-0.01,0.084l-0.01,0.165l-0.018,0.333
							c-0.03,0.443-0.027,0.903-0.011,1.368c0.025,0.927,0.081,1.864,0.126,2.705l-0.505,0.232l0.553-0.2
							c0.047-1.335,0.116-0.866,0.187,0.126c-0.886,0.432-2.384,1.106-2.717,1.305c-0.546,0.202-0.673,0.266-0.72,0.257
							c-0.023-0.012,0.103-0.103,0.344-0.236c0.535-0.271,1.463-0.704,2.044-0.966c-0.803,0.295-1.804,0.584-2.516,0.851
							c-0.342,0.133-0.657,0.267-0.927,0.406c-0.16,0.08-0.213,0.124-0.26,0.172c-0.052,0.051-0.094,0.105-0.125,0.164
							c-0.025-0.034,0.024-0.113,0.131-0.225c0.025-0.045,0.164-0.136,0.333-0.241l0.539-0.331c0.358-0.234,0.938-0.506,1.494-0.78
							l1.728-0.815c-0.039-0.727-0.066-1.428-0.079-2.057l-0.026,1.952c-0.109-1.413-0.11-1.643-0.025-3.567
							c-0.214,1.855-0.369,1.548-0.525,1.092c0.034-0.225,0.049,0.147,0.082-0.066c0.022-0.717,0.072-1.405,0.069-1.763
							c0.001-0.234-0.032-0.347-0.097-0.259c-0.107-0.358-0.179-0.151-0.248,0.389c-0.083,0.743-0.096,1.777-0.166,2.212
							l0.042,1.411l-0.642,0.281c-0.962,0.539-2.117,1.187-2.898,1.751c-0.555,0.458-1.086,0.932-1.586,1.43
							c-1.42,1.048-2.157,1.377-3.262,2.16c-0.038,0.141-0.072,0.283-0.102,0.428c-1.141,1.026-2.128,2.112-1.71,1.152
							c0.099,0.014,0.223-0.15,0.46-0.392c0.006-0.058,0.045-0.128,0.099-0.212l0.024-0.086c-1.112,1.262-1.671,2.147-1.728,2.226
							c1.508-2.442-0.263-0.4-0.308-1.036c-0.582,0.802-1.113,1.638-1.588,2.501c1.083-1.426,0.177,0.078-0.071,0.656
							c-0.321,0.018-1.123,2.073-1.498,3.021l-0.018-0.089c-0.446,0.847-0.941,2.457-1.113,3.632
							c0.083-0.029,0.172,1.528,0.345,2.255c0.379-1.937,0.311-0.758,0.477-0.893c-0.054,0.194-0.1,0.555-0.076,0.6
							c0.032,0.284,0.141-0.362,0.232-0.401c0.19-2.054,0.866-4.063,0.879-4.975c-0.385,0.54-0.251,1.072-0.57,1.717
							c0.092-1.056,0.604-2.32,1.42-3.861l0.452-0.403c0.254-0.523,0.526-1.04,0.82-1.545c-0.294,0.678,0.076,0.402-0.776,1.996
							c0.264-0.115,0.834-1.587,1.556-2.442l0.122-0.621c-0.025,0.25,1.498-1.565,0.596-0.129c-0.508,0.756-0.966,1.539-1.374,2.342
							l0.558-0.529c-0.398,0.639-0.762,1.298-1.098,1.969l0.13-0.534c-0.77,1.65-0.946,1.861-1.172,2.064
							c-0.195,0.209-0.469,0.417-0.855,2.24c0.006,1.207-0.278,2.384-0.547,4.621c0.079-1.63-0.218-0.188-0.349-0.821
							c-0.307,1.678,0,2.269,0.14,3.124c-0.155,0.431-0.305,0.75-0.303-0.763c-0.388-0.186,0.111,1.983-0.217,2.148
							c0.277,2.526,0.909,3.434,1.439,4.406c0.586,0.966,1.053,2.027,2.272,4.623L16.801,66c1.009,1.532,1.904,2.663,2.843,3.71
							c0.947,1.037,1.952,1.992,3.352,2.938c0.644,0.62,1.328,1.211,2.055,1.757c-0.559-0.218-2.096-0.873-1.549-0.303
							c-0.914-1.048-2.11-1.8-3.01-2.936c-0.178-0.024,0.199,0.426,0.348,0.641c-0.641-0.586-0.837-1.004-1.657-1.794
							c-0.031,0.098,0.769,1.07,0.08,0.419c-0.296-0.438-0.583-0.878-0.845-1.33c-0.696-0.771-0.945-0.908-1.221-1.087
							c-0.264-0.185-0.56-0.417-1.151-1.514c0.419,0.293,1.167,0.916,1.765,1.638c-0.62-0.913,0.988,1.096,0.483,0.215
							c-1.194-1.087-1.437-1.86-2.567-3.648c0.148,0.205,0.234,0.236,0.491,0.686c-0.44-0.922-0.819-1.868-1.125-2.835
							c0.046,0.385-0.231-0.182-0.501-0.823c-0.274-0.638-0.527-1.354-0.625-1.183c0.371,1.615,0.626,2.153,0.859,2.75
							c0.259,0.589,0.489,1.251,1.351,2.94c-0.599-0.887-1.436-2.031-1.919-2.561c-0.002-0.035-0.015-0.09-0.054-0.202
							c-0.474-0.455-0.32,0.133-0.764,0.303c1.005,1.555,1.297,2.778,2.65,4.474c0.438,0.184-0.424-1.197-0.967-2.1
							c0.348,0.521,0.714,1.025,1.102,1.511l-0.299-0.243c0.816,1.351,1.77,2.621,2.843,3.785c-0.628-0.646-0.937-0.78-1.329-1.072
							c0.389,0.482,0.743,0.989,1.149,1.513c0.084-0.275,0.267-0.327,0.687,0.095c2.163,2.165,3.542,3.206,4.383,4.052l0.324,0.165
							c-0.337-0.45,2.159,0.647,3.144,0.7c-0.145,0.237,1.408,0.713,2.229,1.059c0.534-0.172,0.025-0.722-0.872-1.28
							c-1.973-0.422-1.146-0.127-2.187-0.129c-1.039-0.362-2.056-0.805-3.043-1.317l0.757,0.175
							c-1.365-0.904-2.793-1.638-2.506-1.813c0.8,0.371,1.909,1.27,2.759,1.503c-0.29-0.211-0.574-0.428-0.851-0.653
							c0.874,0.372,1.048,0.538,1.258,0.761c0.215,0.207,0.462,0.481,1.544,0.862c-0.644-0.603,0.187,0.094,1.16,0.277
							c-0.328-0.225-1.246-0.596-1.958-0.982c-0.714-0.384-1.225-0.75-0.821-0.775c0.548,0.204,1.337,0.775,2.24,1.274
							c0.898,0.498,1.908,0.92,2.71,0.908l-0.086,0.028c2.181,0.656,3.039,0.445,3.881,0.396c0.168,0.043,0.351,0.075,0.542,0.101
							c0.328,0.023,0.769,0.057,1.186,0.057c0.86,0.004,1.775-0.023,2.663-0.042l1.024,1.635l-0.12,0.057
							c0.273,0.427,0.53,0.873,0.819,1.288l0.335,0.484l0.221,0.295c-0.128-0.089-0.24-0.206-0.349-0.342
							c-0.145-0.201-0.406-0.575-0.596-0.915l-1.37-2.441l-1.286-0.016l0.217,0.248c-3.4-0.317-3.655-0.035-4.976-0.01
							c0.577,0.034,1.304,0.12,2.038,0.177c0.113,0.015,0.54,0.033,0.86,0.051c0.335,0.019,0.688,0.013,1.02,0.02
							c0.671,0.003,1.303-0.002,1.865-0.019c0.534,0.819,0.966,1.402,1.205,1.501l0.439,0.966c0.151,0.308,0.327,0.652,0.353,0.763
							l0.357,0.353c0.149,0.368,0.052,0.438-0.201,0.262c-0.125-0.089-0.297-0.234-0.48-0.444c-0.066-0.062-0.253-0.318-0.423-0.553
							c-0.172-0.239-0.34-0.51-0.522-0.794c-0.201-0.45-0.304-0.685-0.195-0.603L37.2,77.983c-0.492,0.037-1.035,0.069-1.701,0.082
							c-0.329,0.001-0.701,0.012-1.089-0.011l-0.6-0.036l-0.399-0.047l0.483-0.021l0.8-0.02l-0.69-0.041l-0.263-0.02l-0.193-0.018
							l-0.75-0.073l-1.361-0.159c-0.832-0.103-1.495-0.19-1.879-0.171c1.006,0.315,2.036,0.541,3.067,0.701
							c0.259,0.033,0.516,0.076,0.775,0.101l0.388,0.042l0.615,0.042c0.848,0.042,1.712,0.051,2.554,0.063l1.206,2.017
							c0.099,0.169,0.207,0.328,0.313,0.489l0.252,0.378c0.128,0.197,0.271,0.383,0.406,0.572c0.955,0.377,1.829,0.948,2.496,0.921
							c1.284,1.37,3.221,2.974,4.459,4.033l-0.18-0.005c0.621,0.497,1.256,0.876,1.816,1.126c0.657,0.544-0.637-0.059-0.166,0.304
							c0.813,0.405,1.645,0.765,2.49,1.077c-0.253,0.168-2.324-0.836-3.235-1.438c0.182,0.097,0.559,0.275,0.461,0.18
							c-0.516-0.367-1.315-0.793-2-1.245c-0.682-0.453-1.261-0.906-1.355-1.22c-0.498-0.357,1.093,0.629-0.443-0.748
							c-0.919-1.031-1.426-1.163-1.604-1.2c-0.133,0.088,1.421,1.688,0.763,1.258c0.817,0.741,1.247,0.904,2.275,1.863
							c-0.878-0.631-2.169-1.428-2.438-1.993c-1.688-1.362-1.928-0.779-1.235,0.034c-0.073-0.257,3.104,2.6,1.151,0.452
							c1.092,0.726,2.916,2.196,4.435,2.914l-0.09,0.002c0.595,0.348,1.205,0.67,1.827,0.963c-0.293-0.063-0.866-0.321-0.95-0.214
							c0.896,0.368,1.806,0.683,2.726,0.939c-1.569-0.421,0.843,0.566,1.522,0.867c0.359-0.091,1.454,0.1,0.48-0.333
							c-1.076-0.525-0.694-0.108-1.712-0.492c0.515,0.095,1.029,0.172,1.543,0.232l0.116,0.07c0.316,0.016,0.632,0.021,0.946,0.021
							c1.985,0.543-1.042,0.382,1.605,0.767l-0.258-0.424c1.472,0.375,3.197,0.708,4.841,0.84c1.641,0.139,3.188,0.051,4.251-0.187
							c-0.563,0.28-0.804,0.643,0.065,0.718c-0.962,0.092-2.89,0.261-4.277,0.237c-0.257-0.063,1.724-0.368,3.193-0.464
							c-0.387-0.254-1.293-0.087-2.155,0.009c-0.859,0.105-1.666,0.144-1.734-0.154c-1.863-0.224-2.56-0.234-3.208-0.21
							c-0.638-0.003-1.235,0.018-2.729-0.596c-0.12,0.247-0.908-0.152-1.146,0.011c0.384,0.357,1.433,0.703,2.65,0.937
							c1.218,0.242,2.592,0.37,3.645,0.526c-0.209-0.001-0.631-0.003-0.717,0.039c1.51,0.228,2.154,0.175,3.212,0.074l-0.134-0.03
							c1.837-0.307,1.151,0.158,2.26,0.195c0.424-0.067,1.95-0.218,1.674-0.378c0.666-0.024,1.334-0.073,2.001-0.154l-0.163-0.263
							c1.075-0.291,1.371-0.176,2.277-0.664l-0.042-0.265c-0.875,0.27-1.762,0.491-2.658,0.662c1.324-0.414,0.32-0.321,1.753-0.786
							c-1.532,0.766,1.187-0.201,1.419-0.067c0.334-0.178,0.664-0.36,0.989-0.55l-0.239,0.174c0.866-0.215,0.928-0.494,1.86-0.917
							c-1.154,0.406-1.929,0.554-3.307,1.236c1.022-0.475,2.946-1.529,3.401-1.809c0.965-0.639,1.757-0.879,2.673-1.474
							c-0.834,0.628-0.582,0.688-0.56,0.869c0.012,0.162-0.184,0.526-2.131,1.433c0.05-0.078,0.362-0.228,0.493-0.264
							c-0.645-0.012-2.282,1.14-3.131,1.564c0.292,0.091-0.612,0.498,0.987-0.011c-0.548,0.088,1.14-0.898,2.582-1.533l-0.05,0.498
							c0.694-0.354,1.373-0.738,2.034-1.152l-0.172,0.137c0.21-0.063,0.439-0.175,0.682-0.327c0.263-0.17,0.693-0.48,1.068-0.794
							c0.78-0.63,1.679-1.467,2.55-2.108l0.229,0.242c0.315,0.25,0.875,0.741,1.506,1.288c0.315,0.276,0.651,0.555,0.986,0.821
							c0.328,0.252,0.72,0.543,0.884,0.643c0.85,0.553,1.419,0.808,0.755,0.114c1.035,1.006,2.301,1.337,3.713,1.889
							c-0.561-0.302-1.106-0.628-1.635-0.976c1.057,0.39,1.432,0.507,1.76,0.603c0.33,0.084,0.619,0.144,1.521,0.214
							c0.127,0.165,0.47,0.379,0.095,0.378c1.397,0.495,3.16,0.93,4.812,1.077c1.65,0.159,3.157,0.042,4.001-0.201
							c1.033-0.086,1.644-0.058,2.361-0.093c0.714-0.043,1.549-0.14,2.919-0.706c0.559-0.273-0.568-0.174,1.268-0.774
							c0.139-0.021-1.622,0.994,0.377,0.136c1.27-0.892,3.348-1.506,4.768-3.003c0.92-0.556,2.202-1.9,2.103-1.453
							c-1.216,1.201-3.139,2.654-3.395,2.941c0.11-0.254-1.096,0.535-0.111-0.245c-1.123,0.62-1.474,0.832-1.785,1.062
							c-0.316,0.216-0.599,0.444-1.677,0.852c-0.106,0.163,1.204-0.229,1.599-0.557c0.09,0.155-0.917,0.723-1.731,1.104
							c-0.81,0.385-1.405,0.649-0.343,0.478c1.192-0.45,1.855-0.984,2.473-1.461c0.616-0.489,1.185-0.927,2.179-1.397
							c-0.597,0.684-1.847,1.249-2.688,2.063c0.562-0.229,1.116-0.481,1.661-0.756c0.335-0.303,0.662-0.607,0.975-0.927
							l-0.035,0.087c1.408-0.783,1.915-1.366,2.335-1.934c0.412-0.582,0.75-1.165,1.611-2.268c-1.255,1.03-0.194-0.663-1.109,0.115
							c1.209-1.347,1.968-2.432,2.267-2.244c-0.891,1.478-0.902,1.548-0.823,1.631c0.055,0.07,0.19,0.146-0.798,1.466
							c0.459-0.318-0.167,0.946,1.199-0.515c1.234-1.892-0.621,0.345,0.665-1.469c0.103-0.086,0.209-0.177,0.203-0.084
							c0.446-0.932,0.753-0.936,1.217-2.098l-0.089,0.287c0.942-1.221,0.605-1.555,1.346-2.644
							c-0.441,0.376,0.164-0.883,0.262-1.693c-0.552,1.188-1.08,1.726-2.313,3.914c0.01,0.363,0.22,0.271-0.278,1.205
							c0.304-0.466,0.593-0.941,0.858-1.429l-0.388,0.894c-0.315,0.437-0.648,0.858-0.992,1.27c1.045-1.748,0.322-1.105,0.604-1.929
							c0.984-1.528,0.682-1.331,1.234-2.325c0.099,0.103,0.528-0.518,0.975-1.455c0.114-0.233,0.224-0.487,0.337-0.752l0.168-0.43
							c0.088-0.247,0.15-0.471,0.226-0.707c0.279-0.938,0.514-1.889,0.727-2.705l0.883-0.107l-0.851,0.141l-0.151,0.723
							c-0.235,1.717,0.109,0.454,0.357-0.51c0.543-0.064,1.022-0.125,1.069-0.107c0.536-0.147,1.088-0.303,1.644-0.478
							c-0.321,0.09-0.726,0.249,0.014,0.132c0.284-0.068,0.488-0.14,0.691-0.203c0.188-0.063,0.275-0.107,0.394-0.159
							c0.217-0.099,0.378-0.198,0.539-0.292c0.32-0.199,0.639-0.388,1.345-0.693c0.174,0.114-0.977,0.808-0.036,0.547
							c0.351,0.006,1.551,0.008,3.345-1.159c0.1-0.131,0.561-0.431,1.076-0.799c-0.067,0.055-0.158,0.119-0.187,0.151
							c0.429-0.198,0.851-0.414,1.269-0.641c-0.83,0.939-2.101,1.232-3.047,2.023l0.024,0.284c-0.851,0.439-2.014,1.034-2.542,1.361
							c1.397-0.479,1.667-0.662,3.108-1.458c0.286,0.043-0.694,0.692-0.848,0.771l0.159-0.243c-1.888,0.624-2.585,1.433-5.083,2.005
							c-0.384,0.073-0.164,0.005-0.101-0.061c-0.495,0.177-0.988,0.299-1.496,0.392c-0.136,0.76-0.333,1.489-0.541,2.225
							c-0.206,0.723-0.407,1.411-0.556,2.144l0.092-0.646c-0.325,1.287-1.137,3.816-2.498,6.136l0.072,0.076
							c0.224-0.207-0.359,0.617-0.732,1.01l0.001-0.004c-0.731,1.134-1.541,2.166-2.263,2.961c0.294-0.188,0.644-0.457,1.006-0.812
							c0.237-0.364,1.908-2.227,1.459-2.144c0.858-0.795,1.661-2.486,2.144-3.174c-0.906,1.243,0.304-1.05,0.249-1.364
							c0.401-0.375,0.894-2.053,1.026-1.787c0.166-0.255-0.412,0.638-0.558,1.279c-0.24,0.769,0.122,0.133,0.435-0.481
							c0.308-0.613,0.583-1.196,0.305-0.222c0.246-0.726,0.504-1.52,0.733-2.354c0.184-0.68,0.323-1.314,0.438-2.009
							c0.443-0.087,0.883-0.192,1.313-0.318l0.658-0.21c0.254-0.089,0.518-0.181,0.761-0.281l-0.715,0.159l-0.629,0.114
							c0.438-0.086,1.428-0.363,2.225-0.644c0.811-0.276,1.493-0.552,1.61-0.541c-0.783,0.365-1.731,0.716-2.78,1.073
							c0.012,0.135,0.654-0.054,1.302-0.296c0.648-0.239,1.297-0.535,1.385-0.485c0.939-0.551,1.835-1.155,2.681-1.811
							c-0.404,0.229-0.815,0.443-1.232,0.647c0.722-0.504,3.334-1.803,4.991-3.222c-0.721,1.088-2.563,2.05-4.513,3.228
							c-1.427,0.885,1.088-0.162-0.294,0.64c0.413-0.104,1.334-0.616,1.727-0.963l0.571-0.274c-0.516,0.522-1.496,1.173-2.614,1.762
							c-1.115,0.597-2.364,1.127-3.365,1.579c0.173-0.089,0.318-0.176,0.365-0.232c-1.521,0.377-2.1,0.475-2.884,0.652l-0.085,0.602
							c0.103-0.213,0.138-0.372,0.161-0.523c0.136-0.033,0.234-0.074,0.363-0.119c0.042,0.03-0.124,0.09-0.331,0.152
							c-0.025,0.284-0.065,0.622-0.064,0.81c0.263-0.727,0.204-0.024,0.349-0.454c-0.015,0.267-0.046,0.48-0.103,0.699
							c-0.026,0.109-0.061,0.219-0.1,0.336l-0.213,0.631c-0.312,0.564-0.004-0.551-0.203-0.475
							c-0.283,1.223-0.818,1.631-1.384,3.355c1.038-2.189,0.097,0.738-0.245,1.534l0.199-0.36c-0.187,0.78-0.518,1.371-0.949,1.738
							c0.462-0.898,0.949-1.737,0.646-1.575l-0.972,1.827l0.238-0.652c-0.55,0.942-1.155,1.854-1.819,2.722
							c-0.182,0.514-0.56,1.34-0.689,1.852c-0.648,0.497-1.345,1.374-1.877,1.93l0.213-0.292l-2.313,1.865
							c-0.813,0.649-1.535,1.179-1.612,1.318c-0.479,0.23,0.977-0.972,1.672-1.786c0.353-0.403,0.545-0.681,0.304-0.564
							c-0.25,0.106-0.899,0.646-2.413,1.656c-1.176,0.727-1.511,1.016-1.696,1.278c-0.188,0.257-0.232,0.469-0.929,0.891
							c0,0,0.063-0.084-0.096-0.044c-1.142,0.477-1.189,0.683-2.125,1.115c0.731-0.178,1.739-0.602,2.024-0.813
							c-0.253,0.365-2.407,0.983-3.286,1.385c0.548-0.336-0.037-0.176-0.652-0.015c-0.617,0.158-1.27,0.314-0.821,0.127
							l-6.351,1.028c-1.668-0.422-2.975-0.013-5.642-0.729c0.409,0.101,1.167,0.183,1.741,0.309
							c0.789-0.021,0.091-0.136-0.494-0.267c-0.585-0.134-1.062-0.245,0.125-0.152c-0.507-0.043-0.058,0.127,0.463,0.166
							c0.908,0.104,1.767,0.058,1.55-0.072c-0.719-0.136-1.429-0.299-2.129-0.493l0.756,0.056c-1.069-0.25-2.116-0.57-3.134-0.95
							c-0.1,0.023,0.18,0.166,0.324,0.232c-1.817-0.528-3.72-1.238-5.476-2.129c-0.877-0.444-1.719-0.929-2.495-1.441
							c-0.368-0.238-0.809-0.555-1.069-0.747c-0.2-0.151-0.392-0.303-0.57-0.459c-0.151,0.131-0.476,0.003-0.835-0.256
							c-0.238,0.23-0.51,0.506-0.806,0.744l-0.465,0.362c-0.327,0.234-0.687,0.482-1.034,0.709
							c-1.398,0.927-2.805,1.679-3.629,2.217c0.581-0.488,0.772-0.977,0.312-0.917c0.525-0.284,1.472-1.074,2.63-1.721
							c0.244-0.007,1.698-0.817,0.878-0.122c2.338-1.705-0.346-0.119,0.175-0.797c-3.33,2.291-5.45,3.523-7.896,4.471l-0.087-0.061
							c-0.613,0.24-1.239,0.452-1.87,0.651c1.578-0.346,1.618,0.078-0.475,0.414l0.246-0.073c-1.196,0.116-3.639,0.669-5.526,0.67
							c-0.421,0.086-0.847,0.169-1.275,0.236c-1.894-0.078-1.937-0.549-2.51-0.852c-2.866-0.345-4.574-0.425-6.638-0.87
							c-0.424-0.227-1.66-0.741-2.478-1.177c-0.821-0.431-1.247-0.719-0.155-0.332c-1.224-0.47-1.819-0.465-2.593-0.66
							c-0.759-0.209-1.746-0.602-3.436-2.185l1.068,0.546c-1.81-1.21-3.886-2.875-5.51-4.598c-0.815-0.855-1.524-1.712-2.082-2.47
							l-0.391-0.547l-0.242-0.372c-0.072-0.121-0.122-0.234-0.158-0.334c0.303,0.022,0.285-0.283,0.082-0.875l-0.699-0.171
							l-0.434-0.105l-0.751-0.155c-0.97-0.219-1.76-0.508-1.953-0.741c0.181,0.189-1.39-0.081-1.634-0.082
							c-0.324-0.156-0.861-0.374-1.491-0.436c1.569,0.582-1.336,0.342,1.846,0.918c-1.664,0.029-3.919-0.174-7.168-1.922
							l0.175-0.205c0.832,0.479,1.689,0.914,2.569,1.306c-0.197-0.283,1.17,0.28,1.772,0.376c-2.477-0.971-2.209-1.134-2.025-1.165
							c0.208-0.083,0.336-0.038-2.033-1.241c-0.532-0.102-0.215,0.016-1.441-0.641c0.567,0.328,0.751,0.239-0.135-0.317l-0.958-0.38
							c-0.633-0.721,0.032-0.319,0.727,0.071c0.7,0.391,1.435,0.77,0.841,0.236c0.915,0.445,2.168,1.018,3.158,1.344
							c0.987,0.332,1.685,0.459,1.445,0.191c-1.478-0.641-2.18-0.841-2.921-1.044c-0.73-0.218-1.503-0.452-2.88-1.481l-0.215-0.327
							c-1.027-0.626-1.316-0.582-1.922-0.895c0.007-0.104-0.196-0.343-0.758-0.886c-1.737-1.15-2.702-2.147-4.159-3.478
							c1.667,1.981,2.427,2.773,3.181,3.615c0.777,0.808,1.563,1.695,3.851,3.096c-0.381-0.184-1.36-0.797-2.248-1.42
							c-0.891-0.618-1.702-1.229-1.912-1.183l0.219-0.155c-1.365-1.109-2.669-2.349-3.878-4.217c0.3,0.341,0.606,0.675,0.919,1.002
							c-1.928-2.252-2.331-4.247-3.643-6.168c0.295,0.764,0.594,1.358,0.858,1.789c-0.796-1.288-1.495-3.073-1.913-4.661
							c-0.459-1.045-0.863-2.125-1.196-3.235c0.117,0.005-0.161-2.146,0.185-1.136c-0.088-2.447-0.429-3.589-0.444-5.03
							c0.225-1.253,0.211-0.7,0.205,0.188c-0.007,0.892,0.069,2.125,0.262,2.239c-0.034-3.438,0.557-7.021,0.923-8.956
							c-0.253,0.661-0.375,0.986-0.429,0.935c0.093-0.084,0.458-1.436,0.721-2.172l0.023-0.563c0.58-1.181,0.6-0.961,0.329,0.109
							c0.45-1.138,0.764-2.634,1.599-3.643c-0.859,1.93-1.938,4.39-2.1,5.493c0.548-2.132,1.152-3.1,1.785-4.17
							c0.673-1.055,1.371-2.243,2.916-4.517c0.105-0.004-0.316,0.832,0.31-0.009c1.478-1.939,0.125-0.722,0.466-1.438
							c-1.147,1.532-1.705,2.209-2.496,3.031l0.16-0.509c0.1-0.028,0.79-1.026,1.066-1.262l-0.04-0.422
							c0.164,0.296,1.514-1.083,2.496-2.228c-1.214,0.958-0.921,0.671-1.468,0.752c0.588-0.93,1.089-1.313,1.602-1.708
							c0.525-0.387,1.053-0.798,1.879-1.703c-0.09,0.184-1.623,1.631-0.199,0.493c1.172-0.942,0.87-1.005,1.649-1.669
							c-0.772,0.886-0.424,0.865-1.175,1.87c-0.996,0.86-1.176,1.056-1.358,1.238c-0.179,0.186-0.362,0.36-1.198,1.333
							c0.543-0.482,1.109-0.934,1.683-1.37c-1.557,1.559-0.917,1.336-0.982,1.526c1.389-1.232,1.867-1.733,2.195-2.177
							c0.334-0.434,0.524-0.799,1.525-1.478c0.834-0.843-1.849,1.318-0.491,0.075c0.933-0.653,1.029-0.742,1.129-0.889
							c0.105-0.141,0.217-0.333,1.301-1.037l-0.313,0.32c0.378-0.132,0.711-0.334,1.052-0.556c0.324-0.206,0.768-0.505,0.924-0.588
							c0.226-0.151-0.013-0.267-0.095-0.461c-0.06-0.203-0.07-0.437,0.264-0.615l-0.008-0.131c0.072,0.09,0.117,0.141,0.147,0.159
							l0.128,0.152c0.314,0.602,0.165,1.377-0.753,2.654c1.094-0.595,1.829-0.91,2.786-1.281c-0.004-0.6,0.02-1.212,0.076-1.837
							c0.063-0.69,0.173-1.538,0.319-2.302c0.292-1.567,0.756-3.13,1.376-4.625c0.392-0.422,0.172,0.362-0.049,1.234
							c-0.225,0.874-0.427,1.847-0.301,1.737c-0.188,0.652-0.351,1.312-0.488,1.979c-0.083-0.07,0.077-1.132,0.249-1.944
							c0.169-0.811,0.292-1.39-0.114-0.531c-0.319,1.423-0.494,2.549-0.615,3.604c-0.055,0.551-0.092,1.008-0.1,1.463
							c-0.015,0.466,0.003,0.948,0.042,1.49c-0.444,0.224-0.94,0.47-1.496,0.814c0.415-0.026,1.087-0.274,1.836-0.585
							c-0.049-1.482-0.022-3.404,0.455-4.775c-0.19,0.911-0.235,1.69-0.234,2.46c0.214-2.065,0.705-4.229,1.569-6.403l0.088-0.529
							c-0.616,1.458-0.914,2.519-0.964,2.651c0.553-2.026,1.092-3.73,0.86-3.996l-0.163,0.346l0.229-0.752
							C28.777,19.58,29.024,19.138,29.281,18.707z M137.2,38.709c-0.087-0.1-0.168-0.173-0.243-0.216
							C137.034,38.54,137.021,38.445,137.2,38.709z M10.862,52.869c0.28-2.742,1.059-5.433,2.148-7.82
							c-1.243,2.046-1.96,4.019-2.245,4.416c-0.135,0.201-0.193,0.003-0.059-0.742c0.131-0.743,0.441-2.048,1.246-3.951l0.181-0.514
							c-0.524,0.95-1.218,2.7-1.583,4.421c-0.074,0.717-0.124,2.234-0.015,3.54c0.092,1.308,0.311,2.396,0.345,2.372
							c0.179-0.477,0.016-1.184,0.157-2.053L10.862,52.869z M9.73,54.817c-0.054,1.626,0.097,1.251,0.226,1.495
							c-0.044-0.565-0.072-1.133-0.077-1.693C9.843,54.833,9.799,54.94,9.73,54.817z M10.074,56.211
							c-0.006-0.179-0.002-0.333,0.011-0.414L10.074,56.211z M25.731,31.49l-0.146,0.073c0.354-0.15,0.723-0.279,1.105-0.422
							C26.526,31.187,26.234,31.276,25.731,31.49z M22.669,32.694l-0.21,0.392c0.303-0.184,0.625-0.342,0.947-0.521
							C23.251,32.535,23.096,32.52,22.669,32.694z M14.301,39.257c-0.214,0.693-1.397,2.622-1.173,2.904
							c-0.001,0.161,0.264-0.229,0.552-0.666c0.315-0.494,0.666-1.013,1.059-1.547c-0.024-0.044,0.021-0.176,0.12-0.378
							c-0.429,0.501-0.728,0.834-0.74,0.5c1.339-1.13,0.645-1.437,1.955-2.782C16.292,36.68,14.53,38.717,14.301,39.257z
							 M108.594,90.878c0.058-0.006,0.245-0.04,0.503-0.107c-0.328,0.282-0.664,0.557-1.009,0.823
							c-2.048,1.125-3.896,1.407-5.747,2.37c-0.958,0.175-1.509,0.084-2.02,0.018l1.243-0.236c2.66-1.048,3.325-1.315,3.968-1.384
							C106.141,92.247,106.713,92.274,108.594,90.878z M83.887,91.256c0.21,0.096,0.309,0.085,0.308,0.086
							c-2.272-0.878-4.297-2.211-5.661-3.389c-0.749,0.679-1.449,1.305-2.104,1.788c-0.658,0.498-1.356,0.951-1.952,1.296
							c0.289-0.035,0.987-0.342,1.729-0.746c0.678-0.357,1.265-0.727,1.646-0.979l-0.569,0.775l-0.488,0.104
							c-0.299,0.309-0.853,0.787-1.312,1.161c0.268-0.062,0.712-0.307,1.196-0.604c0.344-0.2,0.691-0.429,0.97-0.563
							c0.016-0.032,0.387-0.45,0.854-0.942c0.48,0.328,1.148,0.733,1.479,0.881c-0.482-0.456-0.973-0.958-1.464-1.508
							c-0.009-0.016-0.019-0.012-0.027-0.002c0.008-0.007,0.018-0.015,0.027,0.004c0.228,0.264,0.822,0.823,1.521,1.354l0.542,0.396
							l0.647,0.439c0.42,0.273,0.806,0.502,1.092,0.658c0.045-0.047-0.392-0.414-0.87-0.779c-0.238-0.185-0.491-0.364-0.705-0.501
							c-0.207-0.125-0.354-0.192-0.441-0.169c-0.168-0.341,1.957,1.175,0.741,0.05c0.846,0.491,1.903,1.159,2.945,1.74
							c1.037,0.587,2.056,1.088,2.714,1.385l0.116,0.392c1.478,0.637,1.132,0.003,2.902,0.657c-2.267-0.525,0.291,0.467-1.514-0.009
							c0.543,0.275-0.096,0.367,1.761,0.786c1.618-0.113,1.934,0.636,3.466,0.396c0.989,0.201-1.1,0.192,0.87,0.37
							c2.274-0.171,2.122-0.407,2.25-0.706c-2.06-0.033-2.339,0.428-4.045,0.193c1.148-0.049,2.281-0.176,3.39-0.378
							c-0.615-0.063-1.066-0.083-1.446-0.075c0.668-0.008,1.235-0.089,1.714-0.214l0.75-0.194c-1.854,0.119-3.504-0.043-3.778-0.205
							l0.266-0.128c-0.634-0.186-1.687-0.222-2.189-0.201c-1.624-0.257-3.268-0.564-3.545-0.872l0.637,0.061
							c-0.968-0.283-1.497-0.475-2.081-0.701C85.646,92.127,85.005,91.861,83.887,91.256z M25.199,77.5
							c0.432,0.504,0.915,1.017,2.007,1.601c1.092,0.559,2.814,1.251,5.737,1.537l-0.463-0.017c1.114,0.27,2.02,0.292,3.063,0.227
							c0.917,1.343,2.256,2.905,3.57,4.726c-1.307-1.181-1.223-1.108-2.769-2.408c0.411,0.49,0.829,0.971,1.267,1.432
							c-0.57-0.226,0.728,1.186,1.708,2.187c-0.378-0.209-0.741-0.439-1.115-0.666c-0.509-0.689-1.81-2.459-1.821-2.373
							c0.12,0.135-0.044-0.187-0.325-0.732c-0.233-0.46-0.492-1.038-0.814-1.647c-0.438-0.027-0.89-0.05-1.262-0.043
							c0.048,0.112,0.65,0.186,1.154,0.229c0.31,0.63,0.522,1.1,0.038,0.732c0.329,0.377,0.439,0.58,0.633,0.918
							c0.225,0.38,0.448,0.777,0.974,1.389c-1.062-1.14-0.5-0.104-1.324-0.946c0.535,0.719,1.093,1.419,1.686,2.087
							c-0.01,0.054-0.664-0.672-1.147-1.203c-0.475-0.534-0.822-0.847-0.294,0.147c0.714,0.826,2.534,3.103,2.787,2.931
							l-0.012,0.104c1.415,1.461,0.861,0.394,2.635,2.121c0.104-0.085-0.203-0.448-0.879-1.014
							c-0.583-0.462-0.812-0.391-1.915-1.476c-0.339-0.633,1.289,1.343,0.781,0.34c-0.125-0.249-0.857-0.943-1.387-1.549
							c-0.54-0.598-0.885-1.085-0.387-0.771c0.402,0.523,0.828,1.029,1.264,1.527c0.223-0.138,1.211,0.884,1.339,0.696
							c0.921,0.753,1.59,1.718,2.708,2.275c0.509,0.158-0.024-0.591,1.53,0.658c0.533,0.598,1.814,1.487,3.22,2.195
							c1.404,0.712,2.915,1.237,3.749,1.47c0.497,0.106,0.998,0.191,1.498,0.268c-0.089-0.154-2.756-0.825-1.77-0.731
							c0.745,0.229,1.496,0.43,2.254,0.598l-0.197,0.053c0.744,0.22,1.545,0.272,2.247,0.338c-0.751,0.074-2.38-0.391-2.119-0.052
							c1.063,0.31,1.213,0.444,2.231,0.568c-0.225-0.015-0.419-0.021-0.397,0.02c2.213,0.481,2.195-0.017,2.753-0.035
							c1.128-0.101,0.565-0.212-0.221-0.358c-0.79-0.139-1.802-0.366-1.64-0.485c2.114,0.272,4.252,0.313,6.362,0.11
							c-0.534,0.126-1.081,0.236-0.872,0.34c1.582,0.028,0.051,0.247,2.267,0.017c-0.101-0.178,0.585-0.314,1.473-0.509
							c0.888-0.193,1.977-0.473,2.692-0.792c0.736-0.065,0.899-0.057-0.638,0.37c0.243,0.209,2.286-0.493,2.998-0.771
							c0.396-0.208,1.077-0.533,1.489-0.777c-0.637,0.136-0.43-0.086,0.752-0.773l0.048-0.081c-1.012,0.472-2.357,0.948-3.618,1.317
							c-1.261,0.374-2.433,0.65-3.091,0.909l0.36-0.202c-1.271,0.178-2.629,0.479-3.848,0.649c-1.216,0.17-2.283,0.205-2.866-0.041
							c0.114-0.176-0.512-0.063-0.456-0.325c-0.625,0.044-1.253,0.054-1.884,0.058l0.402-0.081
							c-1.059-0.086-2.113-0.233-3.156-0.441l0.093-0.028c-1.53-0.092-2.739-0.272-3.702-0.451
							c-0.043,0.106,0.041,0.175-0.477,0.077c-0.504-0.139-0.88-0.274-1.196-0.434c-0.003-0.001-0.003-0.001-0.004,0l0-0.002
							c-0.727-0.35-1.14-0.733-1.977-1.249c0.895,0.467,1.814,0.886,2.752,1.254c0.306-0.098,0.121-0.352-1.143-1.079
							c0.542,0.246,0.83,0.199,0.173-0.119c-0.099,0.026-1.79-0.746-1.229-0.29c-1.275-0.614-2.811-1.678-4.348-2.993
							c-1.544-1.315-3.075-2.888-4.54-4.457c2.102,2.235-1.33-2.063,0.863,0.516c-0.631-1.004-0.981-1.363-1.371-1.717
							c-0.204-0.187-0.377-0.328-0.641-0.641c-0.278-0.327-0.574-0.756-0.946-1.398c-0.027-0.159,0.17,0.197,0.458,0.635
							c0.274,0.44,0.676,0.985,0.895,1.113l-1.571-2.5c-0.91,0.018-1.81,0.048-2.61,0.029c-0.669-0.009-1.328-0.037-1.994-0.095
							c-1.329-0.122-2.69-0.37-4.14-0.907l-0.077-0.287C26.756,78.102,25.984,77.829,25.199,77.5z M18.627,73.433
							c-0.575-0.497-1.136-1.026-1.682-1.592l0.147,0.172c-0.563-0.519-1.104-1.064-1.621-1.636c0.794,1.166,1.22,2.073-0.16,0.59
							c0.184,0.07-0.082-0.466,0.395,0.044c-0.772-1.108-2.159-3.673-2.071-2.841c0.821,1.01,0.826,1.18,0.762,1.324
							c-0.059,0.137-0.177,0.237,0.534,0.987c-0.855-0.74-1.362-1.727-1.971-2.577c0.731,0.833,0.223-0.43-0.377-1.911
							c-0.373-0.599-1.039-2.367-1.455-3.455c-0.079,0.463-0.544-0.469,0.027,1.368c-0.295-0.64-0.692-1.676-0.857-2.897
							c0.143,0.465,0.403,1.272,0.466,1.191c-0.022-0.81-0.233-1.693-0.244-2.204c-0.089-0.39-0.17-0.787-0.241-1.176
							c-0.001,0.119-0.01,0.225-0.03,0.303c-0.137-0.43-0.264-0.863-0.377-1.303c0.329,1.762,0.005,0.836-0.134,0.831
							c0.264,0.013-0.12-1.153-0.163-1.776c-0.059,0.454-0.108,0.912-0.146,1.374c-0.238-0.642,0.009-2.325-0.243-1.966
							c0.021,1.447,0.145,2.448,0.321,3.399c0.184,0.951,0.415,1.859,0.835,3.097c-0.033-0.359-0.065-0.717-0.082-1.074
							c0.453,1.389,0.543,1.83,0.602,2.339c0.074,0.502,0.12,1.075,0.839,2.576c0.387,0.579,0.973,1.678,1.583,2.572
							c0.603,0.897,1.197,1.598,1.376,1.504c-0.362-0.252,0.966,1.86,1.912,2.533c0.558,0.333,1.521,1.124,2.295,1.671
							c0.772,0.549,1.324,0.886,0.93,0.48c-0.785-0.606-1.924-1.37-2.322-2.11c0.473,0.438,0.961,0.857,1.465,1.256
							c-0.277-0.324-0.545-0.654-0.802-0.99C18.563,74.034,18.651,73.841,18.627,73.433z M20.594,37.745l0.053-0.04l-0.055,0.047
							L20.594,37.745z"/>
						<path fill="#1A90C4" d="M126.987,71.451c0.431-0.33,1.548-1.03,1.223-1.057C128.369,70.583,126.216,71.633,126.987,71.451z"/>
						<path fill="#1A90C4" d="M128.456,70.805c0.049-0.096-0.046-0.124,0.44-0.466c-0.439,0.325-0.89,0.637-1.352,0.933
							C127.851,71.121,128.155,70.967,128.456,70.805z"/>
						<path fill="#1A90C4" d="M130.702,71.003c0.62-0.678,1.007-1.091,2.043-2.037c0.369,0.003-0.017,0.437-0.545,0.94
							c-0.524,0.508-1.196,1.068-1.314,1.454c2.111-1.592,2.366-2.517,3.752-4.118c-0.424,0.335-1.387,1.261-2.291,2.064
							C131.448,70.115,130.618,70.823,130.702,71.003z"/>
						<path fill="#1A90C4" d="M130.141,72.218c0.387-0.31,0.759-0.636,1.125-0.965l-0.136,0.065
							c-0.366,0.329-0.743,0.647-1.128,0.958L130.141,72.218z"/>
						<path fill="#1A90C4" d="M107.342,88.094c-0.179-0.07-0.729,0.477-1.067,0.715C106.567,88.651,106.989,88.438,107.342,88.094z"
							/>
						<path fill="#1A90C4" d="M115.851,17.563c0.837,1.318,1.537,2.724,2.093,4.186c0.279,0.73,0.517,1.478,0.719,2.234
							c0.104,0.378,0.191,0.76,0.274,1.143c0.132,0.659,0.249,1.438,0.336,2.165c-0.078-0.639-0.166-1.269-0.28-1.889l-0.07-0.36
							l-0.054-0.247l-0.117-0.494c-0.164-0.66-0.359-1.33-0.604-2.031C117.65,20.871,116.978,19.326,115.851,17.563z"/>
						<path fill="#1A90C4" d="M76.27,87.319c0.884-0.768,1.634-1.495,2.327-2.135c0.846,0.702,1.659,1.362,2.567,2.07
							c0.227,0.179,0.465,0.351,0.714,0.525l0.378,0.265l0.244,0.156l1.097,0.673l-1.082-0.826l-0.688-0.522
							c-0.262-0.192-0.503-0.398-0.739-0.586l-2.485-2.026c-1.129,1.058-2.268,2.189-3.879,3.146
							C75.202,87.865,75.786,87.56,76.27,87.319z"/>
						<path fill="#1A90C4" d="M77.156,84.895c0.339-0.087-0.375,0.639-1.064,1.315c-0.698,0.676-1.383,1.259-1.061,1.159
							c1.192-0.947,1.448-1.296,1.691-1.568c0.237-0.278,0.473-0.535,1.58-1.463L77.156,84.895z"/>
						<polygon fill="#1A90C4" points="88.066,95.523 87.127,95.399 87.864,95.568 						"/>
						<path fill="#1A90C4" d="M65.544,91.313l0.259-0.13c-0.421,0.065-0.844,0.119-1.266,0.164
							C64.872,91.342,65.208,91.333,65.544,91.313z"/>
						<path fill="#1A90C4" d="M66.061,91.049l-0.257,0.135L66.061,91.049z"/>
						<path fill="#1A90C4" d="M86.715,95.786c0.44,0.172,0.887,0.334,1.337,0.482l0.715,0.045
							C88.077,96.165,87.393,95.989,86.715,95.786z"/>
						<path fill="#1A90C4" d="M78.141,89.36c0.121-0.117,0.245-0.274,0.369-0.364l0.293,0.22c-0.042-0.032-0.16-0.155-0.291-0.289
							C78.218,89.118,77.862,89.426,78.141,89.36z"/>
						<path fill="#1A90C4" d="M57.778,91.672c-0.419,0.003-0.838-0.009-1.258-0.027l0.123,0.047c0.419,0.02,0.838,0.023,1.256,0.022
							L57.778,91.672z"/>
						<path fill="#1A90C4" d="M71.079,94.453c0.884-0.071-2.269,0.912-0.559,0.506C71.961,94.363,71.318,94.47,71.079,94.453z"/>
						<path fill="#1A90C4" d="M53.841,94.264c-0.186-0.043-0.383-0.076-0.575-0.098C53.49,94.211,53.681,94.239,53.841,94.264z"/>
						<path fill="#1A90C4" d="M53.841,94.264c0.595,0.135,1.181,0.338,1.607,0.335C54.715,94.366,54.438,94.353,53.841,94.264z"/>
						<path fill="#1A90C4" d="M47.237,91.943l0.491,0.264c-0.56-0.15-0.317-0.037,0.185,0.094c0.537,0.245,0.539,0.161,0.623,0.143
							l0.367,0.06l-0.475-0.114C47.604,92.008,47.109,91.755,47.237,91.943z"/>
						<path fill="#1A90C4" d="M27.786,75.414c1.599,0.692,2.048,0.801,1.902,0.964c1.606,0.482,1.43,0.089,2.42,0.203
							C30.267,76.26,29.906,76.113,27.786,75.414z"/>
						<path fill="#1A90C4" d="M32.109,76.581c0.207,0.035,0.406,0.054,0.648,0.084C32.489,76.618,32.286,76.602,32.109,76.581z"/>
						<path fill="#1A90C4" d="M54.633,96.519c-0.463,0.005-0.932,0.013-1.399-0.004l0.501,0.074L54.633,96.519z"/>
						<path fill="#1A90C4" d="M25.486,74.26c0.276,0.163,0.743,0.384,0.945,0.547C26.588,74.69,25.206,74.11,25.486,74.26z"/>
						<path fill="#1A90C4" d="M31.123,79.967c0.183,0.154,1.472,0.286,1.992,0.372C32.361,80.234,31.811,79.814,31.123,79.967z"/>
						<path fill="#1A90C4" d="M20.907,72.014c0.24,0.229,0.562,0.646,0.293,0.622C21.643,72.87,22.332,73.044,20.907,72.014z"/>
						<path fill="#1A90C4" d="M27.57,79.011l0.252,0.149c0.45,0.106,0.902,0.196,1.355,0.279
							C28.638,79.311,28.1,79.174,27.57,79.011z"/>
						<path fill="#1A90C4" d="M31.995,82.801c1.7,0.011-2.577-0.896,0.318-0.677c-3.63-0.81,0.229,0.395-2.476-0.146
							C31.403,82.384,32.171,82.726,31.995,82.801z"/>
						<path fill="#1A90C4" d="M29.837,81.979l-0.744-0.191C29.388,81.874,29.629,81.927,29.837,81.979z"/>
						<path fill="#1A90C4" d="M12.636,67.469c0.131,0.193,0.228,0.323,0.325,0.436C12.852,67.756,12.752,67.61,12.636,67.469z"/>
						<path fill="#1A90C4" d="M21.55,78.912c0.786,0.339,1.583,0.64,2.389,0.901c-0.81-0.256-2.148-0.911-3.225-1.541
							c-1.083-0.617-1.918-1.183-1.915-0.969c1.069,0.909,2.555,1.725,3.225,1.931L21.55,78.912z"/>
						<path fill="#1A90C4" d="M13.825,54.646c0.034,0.29,0.084,0.578,0.131,0.865c0.005-0.359,0.018-0.719,0.04-1.077
							C13.941,54.742,13.712,54.178,13.825,54.646z"/>
						<path fill="#1A90C4" d="M14.008,54.228l-0.013,0.207C14.005,54.389,14.007,54.323,14.008,54.228z"/>
						<path fill="#1A90C4" d="M15.26,71.164c0.462,0.617,0.874,1.082,1.394,1.56C16.484,72.48,15.296,70.981,15.26,71.164z"/>
						<path fill="#1A90C4" d="M14.306,48.489c-0.124,0.471-0.227,0.947-0.323,1.424c0.115-0.519,0.245-1.033,0.391-1.543
							L14.306,48.489z"/>
						<path fill="#1A90C4" d="M17.695,42.679l0.19-0.167c0.193-0.345,0.396-0.685,0.61-1.02l-0.204,0.159
							C18.087,41.993,17.88,42.33,17.695,42.679z"/>
						<path fill="#1A90C4" d="M8.056,49.368c-0.28,1.225-0.094,2.23,0.006,1.916c0.097-0.793,0.235-1.581,0.403-2.362
							c-0.375,0.545-0.149,0.651-0.426,2.013C8.025,50.414,8.039,49.893,8.056,49.368z"/>
						<path fill="#1A90C4" d="M54.117,8.902c-0.44,0.108-2.533,0.006-2.654-0.126c0.277-0.089,1.434-0.163,0.707-0.261
							c-0.563,0.151-1.114,0.313-1.654,0.501c-1.111-0.021-0.718-0.206,0.117-0.403c0.833-0.2,2.112-0.32,2.678-0.367
							c-1.161-0.06-1.915,0.031-2.673,0.148c-0.76,0.126-1.529,0.271-2.727,0.501c0.715-0.099,1.178-0.061,1.563-0.018
							c0.119,0.269-2.117,0.446-3.637,0.962c1.011-0.15,0.466,0.102-0.194,0.427c-0.124,0.047-0.2,0.093-0.251,0.13l-0.222,0.116
							l0.178-0.059c-0.001,0.036,0.05,0.061,0.194,0.071c1.225-0.482,2.264-0.451,3.081-0.589c-0.451-0.161,0.248-0.333,1.202-0.432
							c0.954-0.103,2.148-0.091,2.68-0.158c0.41-0.017,0.822-0.019,1.234-0.014l0.46,0.029c0.09,0.063-0.048,0.106-0.751,0.171
							c0.59-0.097,2.526,0.16,2.365,0.002c1.477,0.206,2.927,0.563,4.33,1.051c0.125,0.065,0.248,0.131,0.332,0.202
							c0.154,0.026,0.186,0.012,0.177-0.018c1.985,0.739,3.856,1.772,5.554,3.033c0.421,0.319,0.837,0.647,1.235,0.994l0.297,0.262
							l0.147,0.132l0.074,0.066l0.175,0.17c0.412,0.407,0.83,0.802,1.218,1.255c1.545,1.792,3.119,3.952,4.59,5.829
							c1.348-2.092,2.774-4.515,4.227-6.515l0.567-0.728c0.091-0.122,0.191-0.243,0.298-0.362l0.246-0.282
							c0.185-0.21,0.373-0.416,0.569-0.615c0.384-0.406,0.79-0.792,1.205-1.166l-1.066,0.881l-0.519,0.455l-0.257,0.246l-0.13,0.127
							l-0.272,0.297c0.282-0.387,0.284-0.431,0.312-0.498c0.021-0.06,0.011-0.073-0.024-0.053c-0.041,0.027-0.08,0.057-0.181,0.162
							c-0.147,0.163-0.334,0.364-0.502,0.583c-0.72,0.835-1.52,2.051-1.334,1.511c0.354-0.671,0.864-1.306,1.369-1.944l0.206-0.233
							l0.153-0.168l0.206-0.207c0.133-0.134,0.269-0.246,0.384-0.341c0.044-0.269-0.645,0.258-0.707,0.067
							c-0.113,0.112-0.172,0.162-0.314,0.316c-0.165,0.178-0.314,0.349-0.443,0.518c-0.266,0.335-0.504,0.646-0.721,0.948
							c-0.408,0.656-0.749,1.23-1.073,1.854c-0.65,1.218-1.28,2.504-2.25,4.081c-0.299-0.377-0.615-0.794-0.99-1.299
							c0.139-0.116,1.072,0.815-0.911-1.689l0.515,0.594c-1.625-1.9-2.226-2.841-2.677-3.392c-0.223-0.301-0.417-0.532-0.71-0.792
							c-0.137-0.12-0.336-0.299-0.508-0.413c-0.131-0.075-0.289-0.156-0.482-0.246l0.206-0.17c-1.01-0.66-2.876-2.009-4.044-2.591
							l0.093-0.005c-1.667-0.756-2.153-0.899-2.667-1.137c-0.52-0.211-1.076-0.521-3.056-1.008c0.63,0.061,1.262,0.146,1.891,0.262
							c-1.309-0.581-1.72-0.327-2.69-0.599c0.082-0.029-0.106-0.284,0.845-0.092c-1.66-0.275-3.336-0.373-4.99-0.301
							C52.533,8.72,53.948,8.769,54.117,8.902z"/>
						<path fill="#1A90C4" d="M47.911,8.896c-0.261,0.036-0.552,0.093-0.892,0.182L47.911,8.896z"/>
						<path fill="#1A90C4" d="M82.1,11.966c-0.36,0.279-0.704,0.577-1.044,0.88L82.1,11.966z"/>
						<path fill="#1A90C4" d="M41.544,11.787c0.799-0.271-0.458,0.458-0.521,0.631c0.845-0.502,1.729-0.941,2.633-1.328
							c-0.053-0.088,0.177-0.306,0.087-0.369C42.992,11.038,42.258,11.394,41.544,11.787z"/>
						<path fill="#1A90C4" d="M44.519,10.953c0.067-0.104,0.338-0.268,0.65-0.439c-0.51,0.177-1.015,0.366-1.512,0.577
							C43.699,11.161,43.888,11.143,44.519,10.953z"/>
						<path fill="#1A90C4" d="M42.245,6.021l0.599-0.238l0.897-0.393C43.234,5.583,42.737,5.798,42.245,6.021z"/>
						<path fill="#1A90C4" d="M52.088,4.536c-0.763-0.155-2.199,0.066-2.669,0.168C51.068,4.552,50.357,4.651,52.088,4.536z"/>
						<path fill="#1A90C4" d="M49.9,2.996c0.559-0.075,1.121-0.142,1.685-0.185l-0.158-0.026C50.916,2.842,50.406,2.914,49.9,2.996z
							"/>
						<path fill="#1A90C4" d="M90.887,6.644c0.219-0.056,0.432-0.11,0.657-0.156C91.24,6.54,91.045,6.599,90.887,6.644z"/>
						<path fill="#1A90C4" d="M80.622,12.175c1.336-0.944,0.965-0.541,0.396,0.027c-0.566,0.579-1.267,1.394-0.776,1.179
							c0.38-0.436,0.786-0.85,1.203-1.254l-0.049,0.174c0.526-0.467,1.083-0.9,1.651-1.316c-0.456,0.106-0.726,0.301-0.759,0.095
							c1.18-0.814,1.418-0.858,1.563-0.872c0.148-0.005,0.224,0.042,1.174-0.37c0.908-0.52,1.853-0.978,2.824-1.368l-0.218,0.144
							c0.244-0.104,0.347-0.161,0.421-0.223c3.284-1.294,6.873-1.774,10.417-1.441c1.957,0.091-1.042-0.458,0.429-0.551
							c-1.144-0.148-2.58-0.253-3.75-0.207c-1.172,0.037-2.065,0.211-2.137,0.398c0.068-0.055,0.206-0.182-0.261-0.158
							c-0.427,0.16-0.844,0.334-1.255,0.518c0.417-0.049,0.833-0.092,1.25-0.117c-0.633,0.23-1.977,0.541-3.231,0.923
							c-1.26,0.366-2.428,0.803-2.816,0.877c1.086-0.528,1.338-0.723,1.709-0.942c0.376-0.199,0.876-0.462,2.556-0.752
							c-0.166-0.057-0.82-0.078-0.076-0.296C87.007,7.643,83.563,9.208,80.622,12.175z"/>
						<path fill="#1A90C4" d="M115.762,16.882l-0.046-0.01C115.771,16.925,115.795,16.938,115.762,16.882z"/>
						<path fill="#1A90C4" d="M115.03,15.742c-0.483-0.459-0.983-0.895-1.496-1.304c0.668,0.753,1.286,1.552,1.851,2.388
							l0.331,0.047c-0.197-0.196-0.905-0.998-1.085-1.38L115.03,15.742z"/>
						<path fill="#1A90C4" d="M111.832,12.967c1.172,1.006,1.324,0.773,0.82,0.053c1.109,0.956,0.3,0.763,1.196,1.3
							c0.155-0.177-1.162-1.419-1.5-1.659L111.832,12.967z"/>
						<path fill="#1A90C4" d="M102.033,7.305h0.455c-0.344-0.109-0.69-0.212-1.04-0.305L102.033,7.305z"/>
						<path fill="#1A90C4" d="M102.488,7.305c0.342,0.109,0.681,0.228,1.017,0.352c-0.041-0.109-0.084-0.216-0.232-0.33
							L102.488,7.305z"/>
						<path fill="#1A90C4" d="M106.07,8.796c0.399,0.215,0.838,0.459,1.36,0.766C106.987,9.291,106.533,9.036,106.07,8.796z"/>
						<path fill="#1A90C4" d="M104.986,8.226l0.018,0.05c0.359,0.167,0.717,0.336,1.066,0.521L104.986,8.226z"/>
						<path fill="#1A90C4" d="M103.505,7.656c0.096,0.264,0.228,0.491,1.653,1.031l-0.154-0.412
							C104.512,8.053,104.012,7.846,103.505,7.656z"/>
						<path fill="#1A90C4" d="M61.914,4.748c0.489,0.126,0.976,0.265,1.461,0.416l-0.137-0.088
							c-0.486-0.148-0.975-0.284-1.465-0.408L61.914,4.748z"/>
						<path fill="#1A90C4" d="M69.513,8.918l0.795,0.459C69.982,9.157,69.714,8.992,69.513,8.918z"/>
						<path fill="#1A90C4" d="M73.207,10.2c0.067,0.231,0.009,0.262-0.058,0.263c-0.062,0.01-0.114,0,0.11,0.337
							c0.014,0.162-0.032,0.263-0.144,0.241c-0.106-0.019-0.285-0.159-0.423-0.369c0.117-0.141,0.319,0.169,0.228-0.194
							c-0.256,0.033-0.281-0.188-0.354,0.124l-0.168-0.07c-0.018-0.002-0.072-0.037-0.06-0.012l-0.189-0.125
							c-0.242-0.156-0.438-0.274-0.627-0.373c-0.374-0.201-0.698-0.349-1.214-0.644c0.346,0.242,0.75,0.562,1.185,0.939l0.589,0.537
							l0.283,0.288c0.382,0.396,0.785,0.885,1.096,1.214c0.132-0.236,0.25-0.514,0.344-0.755c0.111-0.434,0.052-0.664-0.036-0.896
							c-0.09-0.226-0.197-0.459-0.277-0.74c-0.033-0.055-0.097-0.031-0.141,0.071C73.306,10.002,73.244,10.027,73.207,10.2z"/>
						<path fill="#1A90C4" d="M73.224,9.532c0.002-0.006-0.014-0.025,0.003-0.011L72.92,9.25c-0.184-0.159-0.345-0.279-0.562-0.437
							c0,0.11,0.192,0.257,0.441,0.446l0.411,0.303C73.184,9.516,73.228,9.538,73.224,9.532z"/>
						<path fill="#1A90C4" d="M82.616,6.574c0.085-0.146,1.277-0.878,0.96-0.842c-0.613,0.361-1.219,0.733-1.801,1.138
							C82.199,6.608,82.401,6.603,82.616,6.574z"/>
						<path fill="#1A90C4" d="M81.017,7.409c0.246-0.189,0.504-0.362,0.759-0.54C81.578,6.991,81.334,7.146,81.017,7.409z"/>
						<path fill="#1A90C4" d="M82.725,6.56l-0.108,0.014C82.598,6.602,82.612,6.61,82.725,6.56z"/>
						<path fill="#1A90C4" d="M109.782,11.187c-0.098,0.087,0.592,0.512,0.927,0.747C110.462,11.717,110.127,11.39,109.782,11.187z"
							/>
						<path fill="#1A90C4" d="M131.145,35.522l0.413,0.606C131.437,35.895,131.366,35.777,131.145,35.522z"/>
						<path fill="#1A90C4" d="M139.957,44.337c0.03,0.016,0.065,0.073,0.104,0.149C140.026,44.41,139.991,44.356,139.957,44.337z"/>
						<path fill="#1A90C4" d="M140.062,44.487c0.266,0.538,0.426,2.324,0.647,2.945l-0.061-0.077
							c0.084,0.393,0.156,0.789,0.221,1.186C140.804,47.414,140.4,45.071,140.062,44.487z"/>
					</g>
				</g>
			</g>
		</g>
	</g>
</g>
<path fill="#5AB2D0" d="M52.063,57.866c0.299,1.915,1.951,3.383,3.951,3.383c2.211,0,4.002-1.793,4.002-4.004
	c0-0.832-0.254-1.604-0.688-2.244C56.993,56.55,54.203,57.462,52.063,57.866z"/>
<path fill="#5AB2D0" d="M66.177,68.275c0,0,7.143-5.901,16.253,0C82.43,68.275,73.63,65.273,66.177,68.275z"/>
<path fill="#5AB2D0" d="M91.882,56.003c-0.299,1.915-1.951,3.382-3.95,3.382c-2.211,0-4.003-1.792-4.003-4.003
	c0-0.832,0.254-1.604,0.688-2.245C86.952,54.686,89.742,55.599,91.882,56.003z"/>
<path fill="#5AB2D0" d="M90.614,60.627l-2.087,4.797c0,0-1.399,3.885,3.058,3.581c0,0,2.765-0.506,1.858-3.324L90.614,60.627z"/>
<ellipse fill="#F8C8DD" cx="49.1" cy="65.308" rx="4.348" ry="1.726"/>
<ellipse fill="#F8C8DD" cx="99.621" cy="65.238" rx="4.348" ry="1.726"/>
</svg>
