<?xml version="1.0" encoding="utf-8"?>
<!-- Generator: Adobe Illustrator 17.0.0, SVG Export Plug-In . SVG Version: 6.00 Build 0)  -->
<!DOCTYPE svg PUBLIC "-//W3C//DTD SVG 1.1//EN" "http://www.w3.org/Graphics/SVG/1.1/DTD/svg11.dtd">
<svg version="1.1" id="Layer_1" xmlns="http://www.w3.org/2000/svg" xmlns:xlink="http://www.w3.org/1999/xlink" x="0px" y="0px"
	 width="100.087px" height="50px" viewBox="0 0 100.087 50" enable-background="new 0 0 100.087 50" xml:space="preserve">
<path fill="#8AC97D" d="M100.087,23.263c0,12.849-10.415,23.266-23.264,23.266h-53.56C10.414,46.529,0,36.112,0,23.263l0,0
	C0,10.414,10.414,0,23.263,0h53.56C89.672,0,100.087,10.414,100.087,23.263L100.087,23.263z"/>
<radialGradient id="SVGID_1_" cx="373.673" cy="-364.698" r="22.802" gradientTransform="matrix(1 0 0 -1 -297.5 -337.5)" gradientUnits="userSpaceOnUse">
	<stop  offset="0.5" style="stop-color:#333333"/>
	<stop  offset="0.6949" style="stop-color:#353535;stop-opacity:0.6103"/>
	<stop  offset="0.7651" style="stop-color:#3C3C3C;stop-opacity:0.4699"/>
	<stop  offset="0.8151" style="stop-color:#474747;stop-opacity:0.3698"/>
	<stop  offset="0.8556" style="stop-color:#585858;stop-opacity:0.2888"/>
	<stop  offset="0.8902" style="stop-color:#6E6E6E;stop-opacity:0.2195"/>
	<stop  offset="0.9209" style="stop-color:#8A8A8A;stop-opacity:0.1581"/>
	<stop  offset="0.9487" style="stop-color:#AAAAAA;stop-opacity:0.1026"/>
	<stop  offset="0.9742" style="stop-color:#D0D0D0;stop-opacity:0.0516"/>
	<stop  offset="0.9969" style="stop-color:#F9F9F9;stop-opacity:0.0061"/>
	<stop  offset="1" style="stop-color:#FFFFFF;stop-opacity:0"/>
</radialGradient>
<circle fill="url(#SVGID_1_)" cx="76.173" cy="27.198" r="22.802"/>
<circle fill="#FFFFFF" cx="76.173" cy="23.537" r="21.454"/>
<path fill="#BBBBBB" d="M76.174,45.491c-12.105,0-21.954-9.849-21.954-21.954S64.068,1.583,76.174,1.583s21.954,9.849,21.954,21.954
	S88.279,45.491,76.174,45.491z M76.174,2.583c-11.554,0-20.954,9.4-20.954,20.954s9.4,20.954,20.954,20.954
	s20.954-9.4,20.954-20.954C97.128,11.983,87.727,2.583,76.174,2.583z"/>
</svg>
