<?xml version="1.0" encoding="utf-8"?>
<!-- Generator: Adobe Illustrator 17.0.0, SVG Export Plug-In . SVG Version: 6.00 Build 0)  -->
<!DOCTYPE svg PUBLIC "-//W3C//DTD SVG 1.1//EN" "http://www.w3.org/Graphics/SVG/1.1/DTD/svg11.dtd">
<svg version="1.1" id="Layer_6" xmlns="http://www.w3.org/2000/svg" xmlns:xlink="http://www.w3.org/1999/xlink" x="0px" y="0px"
	 width="194.909px" height="73.92px" viewBox="0 0 194.909 73.92" enable-background="new 0 0 194.909 73.92" xml:space="preserve">
<path fill="#FFFFFF" d="M168.964,14.922c-9.179-9.041-23.245-10.078-33.548-3.182c-7.676,3.813-16.801,3.716-24.402-0.336v0.167
	c-8.918-5.822-20.535-5.754-29.382,0.164c-7.777,3.865-17.038,3.708-24.699-0.501h-0.006v0.113
	C46.55,4.815,32.68,6.113,23.721,15.209c-10.342,10.5-10.213,27.396,0.287,37.738c8.997,8.861,22.678,10.01,32.919,3.56v0.156
	c7.652-4.203,16.928-4.373,24.721-0.494v-0.042c8.867,5.927,20.47,5.965,29.366,0.157v0.207c7.641-4.069,16.849-4.16,24.57-0.259
	c10.424,6.867,24.576,5.659,33.667-3.572C179.593,42.159,179.464,25.263,168.964,14.922z"/>
<path fill="#CCCCCC" d="M150.242,7.25c6.76,0,13.525,2.554,18.722,7.672c10.5,10.342,10.629,27.237,0.287,37.738
	c-5.221,5.301-12.109,7.956-19.003,7.956c-5.111,0-10.226-1.46-14.664-4.383c-3.775-1.908-7.907-2.861-12.036-2.861
	c-4.315,0-8.629,1.041-12.533,3.12v-0.207c-4.411,2.88-9.487,4.323-14.566,4.323c-5.164,0-10.33-1.491-14.8-4.479v0.042
	c-3.737-1.86-7.813-2.789-11.889-2.789c-4.425,0-8.849,1.095-12.832,3.283v-0.156c-4.333,2.729-9.281,4.098-14.23,4.098
	c-6.748,0-13.499-2.546-18.689-7.657c-10.5-10.342-10.629-27.237-0.287-37.738C28.94,9.91,35.824,7.258,42.714,7.258
	c4.938,0,9.881,1.363,14.213,4.091v-0.113h0.006c3.987,2.19,8.406,3.283,12.825,3.283c4.072,0,8.144-0.929,11.874-2.782
	c4.468-2.989,9.64-4.485,14.816-4.485c5.074,0,10.151,1.439,14.566,4.321v-0.167c3.905,2.082,8.212,3.119,12.518,3.119
	c4.075,0,8.151-0.93,11.883-2.783C139.886,8.748,145.062,7.25,150.242,7.25 M150.242,5.209c-5.671,0-11.147,1.645-15.848,4.759
	c-3.357,1.645-7.11,2.514-10.862,2.514c-4.028,0-8.025-0.996-11.559-2.879l-3-1.599v0.072c-3.882-1.883-8.15-2.866-12.525-2.866
	c-5.666,0-11.139,1.643-15.838,4.754c-3.353,1.645-7.103,2.513-10.853,2.513c-4.138,0-8.233-1.048-11.843-3.031l-0.459-0.252h-0.142
	c-4.412-2.604-9.441-3.977-14.6-3.977c-7.749,0-15.011,3.04-20.447,8.56c-5.384,5.467-8.317,12.703-8.259,20.376
	c0.058,7.673,3.101,14.864,8.568,20.248c5.398,5.316,12.544,8.244,20.121,8.244c4.24,0,8.393-0.927,12.19-2.703v0.17l3.023-1.66
	c3.61-1.983,7.707-3.031,11.849-3.031c3.799,0,7.596,0.89,10.98,2.575l0.155,0.077c4.635,2.994,10.003,4.574,15.554,4.574
	c4.374,0,8.642-0.983,12.525-2.867v0.11l3-1.598c3.538-1.884,7.54-2.88,11.574-2.88c3.815,0,7.621,0.896,11.015,2.591
	c4.665,3.045,10.085,4.653,15.685,4.653c7.753,0,15.018-3.042,20.457-8.564c5.384-5.467,8.317-12.703,8.259-20.376
	c-0.058-7.673-3.101-14.863-8.568-20.248C164.988,8.142,157.831,5.209,150.242,5.209L150.242,5.209z"/>
<path fill="#CCCCCC" d="M108.791,41.091l-6.685-6.584l6.584-6.685c1.46-1.482,1.441-3.867-0.041-5.326
	c-1.482-1.46-3.867-1.442-5.326,0.04l-6.584,6.685l-6.685-6.584c-1.482-1.46-3.867-1.442-5.326,0.04
	c-1.46,1.482-1.442,3.867,0.041,5.326l6.685,6.584l-6.584,6.685c-1.46,1.482-1.441,3.867,0.041,5.326
	c1.482,1.46,3.867,1.442,5.326-0.04l6.584-6.685l6.685,6.584c1.482,1.46,3.867,1.442,5.326-0.041
	C110.291,44.935,110.273,42.55,108.791,41.091z"/>
<path fill="#CCCCCC" d="M145.511,47.172C145.511,47.172,145.511,47.172,145.511,47.172l-0.17-0.004c-0.003,0-0.005,0-0.009,0
	c-1.033,0-1.959-0.381-2.657-1.072l-7.326-7.666c-0.689-0.683-1.08-1.615-1.086-2.609c-0.005-0.994,0.379-1.931,1.078-2.638
	c0.704-0.711,1.643-1.102,2.644-1.102c0.987,0,1.918,0.382,2.618,1.077l4.526,4.839l14.363-15.632
	c0.731-0.796,1.77-1.253,2.851-1.253c0.97,0,1.898,0.362,2.615,1.018c0.762,0.699,1.206,1.652,1.25,2.684
	c0.045,1.033-0.316,2.021-1.014,2.782l-16.834,18.325C147.632,46.716,146.593,47.172,145.511,47.172z"/>
<path fill="#CCCCCC" d="M45.639,34.279c0,1.809-1.467,3.276-3.276,3.276h-0.142c-1.809,0-3.276-1.467-3.276-3.276l0,0
	c0-1.809,1.467-3.276,3.276-3.276h0.142C44.172,31.003,45.639,32.47,45.639,34.279L45.639,34.279z"/>
<g>
	<radialGradient id="SVGID_1_" cx="42.7333" cy="37.5544" r="28.7932" gradientUnits="userSpaceOnUse">
		<stop  offset="0.5" style="stop-color:#000000"/>
		<stop  offset="0.6949" style="stop-color:#020202;stop-opacity:0.6103"/>
		<stop  offset="0.7651" style="stop-color:#090909;stop-opacity:0.4699"/>
		<stop  offset="0.8151" style="stop-color:#141414;stop-opacity:0.3698"/>
		<stop  offset="0.8556" style="stop-color:#252525;stop-opacity:0.2888"/>
		<stop  offset="0.8902" style="stop-color:#3B3B3B;stop-opacity:0.2195"/>
		<stop  offset="0.9209" style="stop-color:#575757;stop-opacity:0.1581"/>
		<stop  offset="0.9487" style="stop-color:#777777;stop-opacity:0.1026"/>
		<stop  offset="0.9742" style="stop-color:#9D9D9D;stop-opacity:0.0516"/>
		<stop  offset="0.9969" style="stop-color:#C6C6C6;stop-opacity:0.0061"/>
		<stop  offset="1" style="stop-color:#CCCCCC;stop-opacity:0"/>
	</radialGradient>
	<circle fill="url(#SVGID_1_)" cx="42.733" cy="37.554" r="28.793"/>
</g>
<circle fill="#FFFFFF" cx="42.733" cy="33.932" r="26.685"/>
<path fill="#CCCCCC" d="M42.735,7.247c6.762,0,13.526,2.553,18.724,7.673c10.5,10.342,10.629,27.237,0.287,37.738
	c-5.222,5.302-12.117,7.96-19.014,7.96c-6.762,0-13.526-2.553-18.724-7.673c-10.5-10.342-10.629-27.237-0.287-37.738
	C28.943,9.905,35.838,7.247,42.735,7.247 M42.736,5.247v2V5.247h-0.002c-7.746,0-15.004,3.039-20.438,8.557
	C11.197,25.073,11.335,43.271,22.605,54.37c5.4,5.319,12.548,8.248,20.127,8.248c7.746,0,15.004-3.039,20.439-8.557
	c11.099-11.269,10.961-29.467-0.309-40.566C57.462,8.176,50.314,5.247,42.736,5.247L42.736,5.247z"/>
</svg>
