<?xml version="1.0" encoding="utf-8"?>
<!-- Generator: Adobe Illustrator 17.0.0, SVG Export Plug-In . SVG Version: 6.00 Build 0)  -->
<!DOCTYPE svg PUBLIC "-//W3C//DTD SVG 1.1//EN" "http://www.w3.org/Graphics/SVG/1.1/DTD/svg11.dtd">
<svg version="1.1" id="Layer_6" xmlns="http://www.w3.org/2000/svg" xmlns:xlink="http://www.w3.org/1999/xlink" x="0px" y="0px"
	 width="194.909px" height="73.92px" viewBox="0 0 194.909 73.92" enable-background="new 0 0 194.909 73.92" xml:space="preserve">
<g>
	<path fill="#FFFFFF" d="M157.195,66.458c-6.035-0.001-11.875-1.746-16.888-5.048c-4.076-2.057-8.714-3.159-13.36-3.159
		c-4.865,0-9.693,1.202-13.962,3.476l-0.735,0.392v-0.16c-4.81,2.94-10.321,4.489-16,4.489c-6.003,0-11.806-1.727-16.8-4.997
		l-0.188-0.082c-4.084-2.032-8.665-3.106-13.247-3.106c-4.996,0-9.939,1.265-14.295,3.657l-0.741,0.406v-0.131
		c-4.722,2.784-10.103,4.251-15.62,4.251c-8.105,0-15.749-3.132-21.523-8.818c-5.848-5.76-9.104-13.452-9.166-21.66
		c-0.063-8.208,3.075-15.95,8.835-21.798c5.815-5.904,13.583-9.156,21.873-9.156c5.682,0,11.218,1.557,16.036,4.506h0.193
		l0.119,0.062c4.355,2.393,9.296,3.658,14.288,3.658c4.574,0,9.149-1.072,13.229-3.1c4.996-3.347,10.896-5.133,17.007-5.133
		c5.68,0,11.192,1.549,16,4.487V9.377l0.735,0.392c4.265,2.273,9.087,3.475,13.946,3.475c4.577,0,9.154-1.073,13.238-3.101
		c4.999-3.351,10.903-5.139,17.019-5.139c8.118,0,15.775,3.138,21.56,8.835c5.849,5.76,9.104,13.452,9.166,21.66
		c0.063,8.208-3.075,15.95-8.835,21.797c-5.818,5.908-13.59,9.162-21.882,9.162C157.196,66.458,157.196,66.458,157.195,66.458z"/>
	<path fill="#CCCCCC" d="M157.189,5.503c7.658,0,15.322,2.893,21.209,8.691c11.895,11.715,12.041,30.856,0.325,42.751
		c-5.914,6.005-13.717,9.012-21.528,9.012c-5.79,0-11.585-1.654-16.612-4.966c-4.277-2.161-8.957-3.241-13.635-3.241
		c-4.889,0-9.775,1.179-14.198,3.534V61.05c-4.997,3.263-10.747,4.897-16.501,4.897c-5.85,0-11.702-1.69-16.766-5.074v0.048
		c-4.233-2.107-8.851-3.16-13.469-3.16c-5.013,0-10.024,1.241-14.536,3.719v-0.177c-4.909,3.092-10.514,4.642-16.121,4.642
		c-7.645,0-15.292-2.884-21.172-8.675C2.291,45.555,2.145,26.415,13.861,14.52c5.912-6.002,13.711-9.007,21.517-9.007
		c5.594,0,11.193,1.544,16.101,4.634v-0.129h0.006c4.516,2.481,9.523,3.719,14.529,3.719c4.613,0,9.226-1.052,13.451-3.152
		C84.526,7.2,90.385,5.504,96.249,5.505c5.748,0,11.5,1.63,16.5,4.895v-0.19c4.424,2.358,9.303,3.533,14.181,3.533
		c4.617,0,9.234-1.053,13.462-3.153C145.456,7.2,151.321,5.503,157.189,5.503 M157.189,4.503c-6.193,0-12.173,1.805-17.298,5.219
		c-4.001,1.976-8.481,3.021-12.96,3.021c-4.777,0-9.518-1.181-13.711-3.416l-1.47-0.784v0.072c-4.703-2.694-10.025-4.11-15.5-4.111
		c-6.188,0-12.164,1.802-17.286,5.213c-3.997,1.976-8.474,3.019-12.95,3.019c-4.908,0-9.765-1.243-14.047-3.596l-0.225-0.124h-0.187
		c-4.868-2.949-10.449-4.506-16.177-4.506c-8.424,0-16.319,3.304-22.229,9.305c-5.854,5.943-9.042,13.81-8.979,22.152
		c0.063,8.342,3.372,16.159,9.315,22.013c5.868,5.779,13.636,8.962,21.873,8.962c5.316,0,10.507-1.34,15.121-3.89v0.115l1.481-0.814
		c4.283-2.352,9.143-3.596,14.055-3.596c4.505,0,9.009,1.056,13.023,3.055l0.242,0.12c5.053,3.28,10.911,5.011,16.97,5.011
		c5.474,0,10.796-1.417,15.501-4.112v0.116l1.47-0.783c4.197-2.235,8.945-3.417,13.728-3.417c4.55,0,9.09,1.075,13.134,3.108
		c5.084,3.336,11.001,5.099,17.113,5.099c8.428,0,16.327-3.307,22.24-9.311c5.854-5.943,9.042-13.81,8.979-22.152
		c-0.063-8.342-3.372-16.159-9.315-22.013C173.22,7.692,165.439,4.503,157.189,4.503L157.189,4.503z"/>
</g>
<g>
	<path fill="#CCCCCC" d="M110.232,43.84l-7.573-7.459l7.459-7.573c1.653-1.679,1.633-4.38-0.046-6.034
		c-1.679-1.654-4.38-1.633-6.034,0.046l-7.459,7.573l-7.573-7.459c-1.679-1.654-4.38-1.633-6.034,0.046
		c-1.654,1.679-1.633,4.38,0.046,6.034l7.573,7.459l-7.459,7.573c-1.653,1.679-1.633,4.38,0.046,6.034
		c1.679,1.654,4.38,1.633,6.034-0.046l7.459-7.573l7.573,7.459c1.679,1.654,4.38,1.633,6.034-0.046
		C111.931,48.195,111.911,45.493,110.232,43.84z"/>
	<path fill="#CCCCCC" d="M151.83,50.729c0,0,0,0-0.001,0l-0.192-0.004c-0.003,0-0.006,0-0.01,0c-1.17,0-2.219-0.432-3.01-1.215
		l-8.3-8.684c-0.78-0.773-1.224-1.83-1.23-2.956c-0.005-1.126,0.429-2.188,1.222-2.988c0.797-0.805,1.861-1.249,2.995-1.249
		c1.119,0,2.172,0.433,2.966,1.22l5.127,5.482l16.271-17.709c0.828-0.902,2.005-1.42,3.23-1.42c1.099,0,2.151,0.41,2.962,1.153
		c0.863,0.792,1.366,1.871,1.417,3.041s-0.358,2.289-1.149,3.152l-19.071,20.759C154.232,50.212,153.055,50.729,151.83,50.729z"/>
	<path fill="#CCCCCC" d="M38.69,36.123c0,2.049-1.661,3.711-3.711,3.711h-0.161c-2.049,0-3.711-1.661-3.711-3.711l0,0
		c0-2.049,1.661-3.711,3.711-3.711h0.161C37.028,32.412,38.69,34.073,38.69,36.123L38.69,36.123z"/>
</g>
<g>
</g>
<g>
</g>
</svg>
